<svg width="32" height="32" viewBox="0 0 32 32" fill="none" xmlns="http://www.w3.org/2000/svg">
<path d="M17.4817 23.2689C17.3782 23.2583 17.3782 23.2583 17.2851 23.2795C17.2437 23.2901 17.2023 23.3113 17.1609 23.3007C17.1506 23.3007 17.1402 23.3007 17.1299 23.3113C17.0988 23.3219 17.0678 23.3536 17.0368 23.3536C17.0057 23.3642 16.9643 23.3536 16.9333 23.3536C16.8816 23.3642 16.8298 23.3536 16.7781 23.3854C16.7367 23.4066 16.6953 23.4066 16.6539 23.396C16.5918 23.3854 16.5194 23.3854 16.4573 23.4066C16.4263 23.4172 16.3849 23.4172 16.3539 23.4066C16.3125 23.4066 16.2814 23.4066 16.2504 23.4172C16.2297 23.4278 16.1987 23.4172 16.178 23.4172C16.1676 23.4172 16.1573 23.4172 16.1469 23.4172C16.0952 23.4066 16.0538 23.449 16.0021 23.4384C15.9607 23.4278 15.9193 23.4278 15.8779 23.4278C15.8572 23.4278 15.8469 23.4384 15.8262 23.449C15.8055 23.4596 15.7951 23.4702 15.7745 23.4596C15.7331 23.4278 15.6813 23.449 15.6399 23.4384C15.6192 23.4278 15.5986 23.4384 15.5675 23.449C15.5054 23.4808 15.4434 23.4808 15.3813 23.449C15.3502 23.4278 15.3088 23.4278 15.2778 23.4278C15.2571 23.4278 15.2364 23.4384 15.2261 23.4278C15.1847 23.4066 15.133 23.396 15.0916 23.4066C15.0502 23.4066 14.9984 23.4066 14.9571 23.4066C14.9674 23.4384 14.9674 23.4596 14.9778 23.4914C14.9674 23.502 14.9571 23.5126 14.9467 23.5232C14.9157 23.5444 14.9157 23.5762 14.9364 23.5974C14.9467 23.6079 14.9467 23.6185 14.9467 23.6397C14.926 23.6503 14.9157 23.6715 14.895 23.6821C14.895 23.6927 14.9053 23.7139 14.9053 23.7351C14.9053 23.7563 14.9157 23.7669 14.9157 23.7881C14.895 23.8093 14.8743 23.8199 14.8639 23.8411C14.8743 23.8728 14.8743 23.894 14.8846 23.9258C14.8639 23.9364 14.8536 23.9576 14.8329 23.9682C14.8122 24.0106 14.8536 24.0318 14.8432 24.0742C14.8226 24.106 14.7708 24.1166 14.7605 24.1801C14.7605 24.1907 14.7708 24.2013 14.7708 24.2225C14.7812 24.2437 14.7915 24.2543 14.7915 24.2649C14.7915 24.3391 14.7605 24.3815 14.7087 24.4238C14.7191 24.4768 14.7191 24.5298 14.7294 24.5828C14.7398 24.5934 14.7398 24.604 14.7501 24.6146C14.7812 24.6464 14.8225 24.6781 14.8536 24.7205C14.8846 24.7629 14.926 24.7841 14.9674 24.8053C15.0088 24.8265 15.0191 24.8689 14.9881 24.9113L14.9778 24.9219C14.9571 24.9536 14.9467 24.9854 14.9778 25.0278C15.0191 25.0914 15.0191 25.155 14.9674 25.2185L14.9571 25.2291C14.9364 25.2609 14.9364 25.2609 14.9467 25.3351C14.9364 25.3457 14.9364 25.3669 14.9157 25.3775C14.8846 25.4093 14.8743 25.4411 14.895 25.4834C14.9157 25.5364 14.926 25.5894 14.895 25.6424C14.8639 25.6954 14.8639 25.7589 14.8329 25.8119C14.8226 25.8225 14.8225 25.8437 14.8225 25.8649C14.8225 25.9285 14.8019 25.9815 14.7708 26.0344C14.7294 26.1086 14.7087 26.1934 14.7087 26.2781C14.7087 26.3311 14.688 26.3841 14.6673 26.4371C14.657 26.4583 14.6467 26.4689 14.6363 26.4901C14.6363 26.5219 14.6363 26.5642 14.6363 26.596C14.6156 26.6384 14.5949 26.6702 14.5846 26.702C14.5846 26.7444 14.5949 26.7868 14.5949 26.8397C14.5742 26.8609 14.5535 26.8821 14.5328 26.9139C14.5225 26.9351 14.5018 26.9563 14.4915 26.9775C14.4708 27.0093 14.4604 27.0517 14.4501 27.094C14.4501 27.1364 14.4811 27.1576 14.4915 27.2C14.4811 27.253 14.4708 27.3166 14.4501 27.3695C14.4501 27.3907 14.4397 27.4013 14.4294 27.4225C14.3983 27.4649 14.3673 27.4967 14.3776 27.5497C14.3776 27.5603 14.3673 27.5709 14.3673 27.5815C14.3259 27.6132 14.3156 27.6556 14.2845 27.698C14.2845 27.7298 14.3052 27.7404 14.3156 27.7616C14.3259 27.7722 14.3363 27.7934 14.3259 27.8146C14.3156 27.8675 14.3052 27.9099 14.2949 27.9523C14.2845 27.9735 14.2742 27.9947 14.2535 28.0159C14.2224 28.0477 14.1914 28.0795 14.1707 28.1007C14.1604 28.1536 14.2121 28.1642 14.2121 28.2066C14.1914 28.302 14.1604 28.3974 14.1397 28.4927C14.119 28.5033 14.1086 28.5139 14.0983 28.5245C14.0776 28.5457 14.0672 28.5775 14.0672 28.6093C14.0776 28.6305 14.0776 28.6517 14.0879 28.6728C14.0776 28.7152 14.0672 28.747 14.0569 28.7788C14.0465 28.7894 14.0465 28.7894 14.0362 28.7894C13.9845 28.8212 13.9638 28.853 13.9845 28.906C13.9948 28.9272 13.9948 28.9377 13.9948 28.9589C13.9741 28.9801 13.9638 29.0013 13.9431 29.0119C13.9431 29.0225 13.9431 29.0225 13.9431 29.0331C13.9534 29.0755 13.9741 29.1179 13.9534 29.1603C13.9327 29.2027 13.9017 29.2238 13.8603 29.245C13.8293 29.2556 13.8086 29.2874 13.7982 29.3086C13.7775 29.3828 13.7465 29.4464 13.7361 29.5205C13.6948 29.6795 13.643 29.8278 13.5809 29.9762C13.5396 30.0821 13.4775 30.1669 13.4257 30.2623C13.374 30.2834 13.3326 30.3046 13.3119 30.347C13.2912 30.3682 13.2705 30.3894 13.2498 30.4106C13.1567 30.4 13.0739 30.3682 12.9808 30.3364C12.9394 30.347 12.8981 30.347 12.8567 30.3576C12.8256 30.3576 12.7842 30.3576 12.7532 30.3576C12.6394 30.453 12.6394 30.4424 12.5256 30.4106C12.4635 30.3682 12.3911 30.3152 12.329 30.2728C12.3186 30.2517 12.3083 30.2305 12.2979 30.2199C12.2566 30.1457 12.2462 30.0609 12.2462 29.9656C12.2462 29.8702 12.2462 29.7854 12.2669 29.6901C12.3083 29.5311 12.3393 29.3828 12.3807 29.2238C12.3911 29.1815 12.4014 29.1391 12.3911 29.0967C12.3807 29.0437 12.3911 29.0013 12.4324 28.9589C12.4531 28.9377 12.4531 28.906 12.4531 28.8742C12.4428 28.8424 12.4324 28.8 12.4738 28.7788C12.4842 28.7364 12.4842 28.694 12.4945 28.6517C12.4945 28.6305 12.4945 28.5987 12.5049 28.5775C12.5463 28.4503 12.567 28.3126 12.629 28.196C12.6497 28.1854 12.6601 28.1748 12.6808 28.1642C12.7118 28.143 12.7222 28.1219 12.7222 28.0901C12.7222 28.0689 12.7118 28.0583 12.7118 28.0371C12.7118 28.0159 12.7015 27.9947 12.7015 27.9841C12.7325 27.9205 12.7222 27.8358 12.7635 27.7722C12.8049 27.7086 12.8256 27.645 12.8256 27.5709C12.8256 27.5391 12.8463 27.4967 12.867 27.4755C12.9084 27.4225 12.9291 27.3589 12.9187 27.2954C12.9601 27.2424 13.0015 27.1894 13.0326 27.1576C13.0429 27.1152 13.0119 27.1046 13.0015 27.0834C12.9912 27.0623 12.9912 27.0411 12.9808 27.0093C12.9705 26.9669 12.9808 26.9351 13.0015 26.9033C13.0326 26.8609 13.0533 26.8079 13.0946 26.755C13.0946 26.7338 13.0946 26.702 13.0946 26.6702C13.0946 26.6278 13.1257 26.5854 13.1567 26.5642C13.1567 26.5007 13.1567 26.4477 13.1671 26.3841C13.1774 26.3417 13.1981 26.3099 13.2188 26.2675C13.2395 26.2675 13.2498 26.2675 13.2602 26.2675C13.2809 26.2358 13.2912 26.204 13.2912 26.1616C13.2705 26.1298 13.2602 26.098 13.2395 26.0662C13.2292 26.0132 13.2395 25.9709 13.2705 25.9285C13.2912 25.9073 13.3016 25.8755 13.3016 25.8437C13.2912 25.7272 13.3223 25.6212 13.3533 25.5152C13.3533 25.5046 13.3533 25.5046 13.3533 25.494C13.3637 25.4305 13.3947 25.3775 13.4257 25.3245C13.4257 25.2821 13.4257 25.2397 13.4257 25.1973C13.4568 25.1762 13.4775 25.1444 13.5085 25.1232C13.4982 25.0914 13.4982 25.049 13.4878 25.0172C13.4775 24.9325 13.4775 24.8477 13.5396 24.7735C13.5602 24.7523 13.5602 24.7205 13.5602 24.6887C13.5499 24.6252 13.5809 24.5828 13.6223 24.5404C13.6327 24.4768 13.6327 24.4238 13.643 24.3603C13.6741 24.3391 13.6948 24.3285 13.7154 24.3073C13.7154 24.2967 13.7258 24.2861 13.7258 24.2755C13.6948 24.1695 13.7361 24.0636 13.7568 23.9682C13.7879 23.8199 13.8293 23.6821 13.8706 23.5444C13.881 23.5126 13.8913 23.4702 13.8913 23.4384C13.8913 23.4066 13.912 23.3748 13.9224 23.3325C13.881 23.3113 13.8396 23.343 13.7982 23.3325C13.7672 23.3325 13.7258 23.3325 13.6844 23.3219C13.6637 23.3113 13.643 23.3007 13.612 23.2795C13.5706 23.2477 13.5189 23.2477 13.4775 23.2901C13.4775 23.2901 13.4671 23.2901 13.4568 23.2901C13.4361 23.2795 13.4154 23.2583 13.3844 23.2371C13.3533 23.2477 13.3223 23.2689 13.2912 23.2795C13.2395 23.2477 13.2085 23.1947 13.1257 23.2053C13.1153 23.2159 13.0843 23.2265 13.0533 23.2477C13.0326 23.2477 13.0119 23.2477 12.9912 23.2477C12.9498 23.2477 12.9084 23.2371 12.8774 23.2053C12.8567 23.1735 12.8256 23.1523 12.7739 23.1523C12.7532 23.1629 12.7222 23.1841 12.6911 23.2053C12.6083 23.1841 12.6083 23.1841 12.5359 23.1311C12.5049 23.1205 12.4842 23.1629 12.4531 23.1629C12.4014 23.1629 12.36 23.1523 12.329 23.1099C12.3083 23.0887 12.2772 23.0675 12.2566 23.0464C12.2152 23.0358 12.2048 23.057 12.1841 23.0676C12.1324 23.1099 12.091 23.1099 12.0393 23.0676C12.0289 23.057 12.0082 23.0464 11.9875 23.0358C11.9668 23.0464 11.9565 23.057 11.9462 23.0676C11.8737 23.1629 11.8116 23.2689 11.7392 23.3642C11.7392 23.3642 11.7289 23.3748 11.7289 23.3854C11.7185 23.4066 11.7185 23.4384 11.7392 23.449C11.791 23.4808 11.791 23.5232 11.7806 23.5762C11.7703 23.6079 11.7599 23.6397 11.7496 23.6609C11.7082 23.7987 11.6668 23.9258 11.6357 24.0742C11.6254 24.106 11.6151 24.1483 11.6047 24.1801C11.5944 24.2013 11.584 24.2119 11.584 24.2331C11.5737 24.3285 11.5426 24.4238 11.4909 24.5086C11.4805 24.5722 11.4599 24.6358 11.4392 24.6993C11.4288 24.7523 11.4081 24.7947 11.3978 24.8371C11.3771 24.9219 11.3564 25.0066 11.3357 25.0914C11.3253 25.1126 11.3253 25.1444 11.315 25.1656C11.2426 25.2821 11.2426 25.4093 11.1908 25.5258C11.1495 25.6318 11.1184 25.7377 11.0874 25.8437C11.046 25.9603 11.0046 26.0768 10.9839 26.1934C10.9632 26.2993 10.9425 26.4053 10.9011 26.5113C10.8804 26.5642 10.8908 26.6278 10.8701 26.6914C10.8597 26.7232 10.8597 26.7656 10.839 26.7974C10.808 26.8609 10.7977 26.9245 10.7873 26.9881C10.7873 27.0093 10.7873 27.0305 10.777 27.0411C10.7666 27.0728 10.7356 27.1046 10.7356 27.1364C10.7252 27.1682 10.7356 27.2106 10.7252 27.2424C10.7045 27.306 10.6942 27.3589 10.6632 27.4119C10.6218 27.4755 10.6114 27.5497 10.6011 27.6238C10.5804 27.7934 10.5286 27.9629 10.4873 28.1219C10.4666 28.2172 10.4252 28.3126 10.3941 28.3974C10.3528 28.4927 10.3217 28.5881 10.2907 28.694C10.2907 28.7046 10.2803 28.7046 10.2907 28.7152C10.301 28.8212 10.2493 28.906 10.2079 28.9907C10.1872 29.0437 10.1769 29.0967 10.1769 29.1497C10.1872 29.2238 10.1665 29.298 10.1458 29.3616C10.0941 29.5205 10.0423 29.6901 10.001 29.8596C10.001 29.8808 9.96992 29.902 9.95957 29.9232C9.95957 29.955 9.99061 29.9868 9.94923 30.0185C9.92853 30.0397 9.91819 30.0715 9.90784 30.1033C9.85611 30.2517 9.82507 30.4 9.78368 30.5483C9.76299 30.6437 9.73195 30.7391 9.70091 30.8344C9.70091 30.8556 9.69056 30.8662 9.68021 30.8874C9.63883 30.9192 9.65952 30.9722 9.63882 31.004C9.61813 31.0358 9.61813 31.0676 9.61813 31.1099C9.61813 31.2159 9.60779 31.2795 9.55605 31.4172C9.5664 31.449 9.5664 31.4702 9.57675 31.502C9.5664 31.5444 9.55605 31.5868 9.52501 31.6185C9.46293 31.6821 9.40085 31.7563 9.32842 31.7987C9.21461 31.8728 9.09045 31.9046 8.94559 31.9046C8.88351 31.9258 8.84213 31.9894 8.7697 32C8.749 31.9894 8.72831 31.9682 8.69727 31.9576C8.66623 31.9364 8.62484 31.947 8.6145 31.9046C8.60415 31.8728 8.6145 31.8411 8.6145 31.8199C8.60415 31.8093 8.5938 31.7881 8.57311 31.7775C8.56276 31.7351 8.56276 31.6821 8.55242 31.6397C8.54207 31.6291 8.54207 31.6079 8.53172 31.6079C8.47999 31.5444 8.44895 31.4808 8.42825 31.396C8.41791 31.3324 8.38687 31.2795 8.36617 31.2371C8.34548 31.2159 8.33513 31.2053 8.31444 31.1947C8.31444 31.1841 8.31444 31.1735 8.31444 31.1523C8.30409 31.1205 8.26271 31.1205 8.24201 31.0993C8.23167 31.0887 8.23167 31.0781 8.23167 31.0676C8.24201 31.0358 8.26271 31.0146 8.27305 30.9934C8.26271 30.9616 8.26271 30.9298 8.25236 30.898C8.27305 30.8768 8.2834 30.8556 8.31444 30.8238C8.31444 30.7815 8.32479 30.7391 8.32479 30.6755C8.31444 30.6543 8.30409 30.6331 8.2834 30.6013C8.2834 30.5907 8.2834 30.5907 8.2834 30.5801C8.29375 30.5166 8.2834 30.453 8.31444 30.4C8.34548 30.347 8.33513 30.294 8.35583 30.2411C8.36617 30.2199 8.34548 30.1775 8.36617 30.1563C8.37652 30.1351 8.39721 30.1139 8.40756 30.0927C8.39721 30.0609 8.39721 30.0291 8.38687 29.9974C8.40756 29.9126 8.41791 29.8278 8.4593 29.7536C8.46964 29.7324 8.46964 29.7219 8.47999 29.7007C8.47999 29.6795 8.47999 29.6477 8.49034 29.6265C8.52138 29.5629 8.53172 29.4887 8.56276 29.4146C8.58346 29.3616 8.60415 29.3086 8.5938 29.2556C8.5938 29.2344 8.5938 29.2132 8.60415 29.2026C8.64554 29.1285 8.63519 29.0437 8.65588 28.9695C8.70762 28.8318 8.749 28.694 8.82143 28.5669C8.84213 28.5457 8.86282 28.5139 8.86282 28.4821C8.88351 28.3762 8.95594 28.3126 9.00767 28.2278C9.02837 28.2066 9.04906 28.2172 9.06975 28.2172C9.11114 28.2172 9.13183 28.1854 9.16287 28.1748C9.19392 28.1536 9.22495 28.143 9.256 28.1325C9.32842 28.0477 9.32842 27.9417 9.36981 27.857C9.4112 27.7722 9.44224 27.6874 9.47328 27.6026C9.46293 27.5497 9.45258 27.5073 9.44224 27.4543C9.44224 27.4119 9.44224 27.3695 9.45258 27.3272C9.40085 27.1894 9.40085 27.1894 9.44224 27.0728C9.50432 26.9139 9.54571 26.7444 9.57675 26.5748C9.60779 26.4371 9.63883 26.2993 9.71125 26.1722C9.7216 26.151 9.7216 26.1404 9.73195 26.1192C9.7216 26.0874 9.71125 26.0556 9.70091 26.0238C9.70091 25.9603 9.75264 25.9285 9.76299 25.8649C9.76299 25.8543 9.76299 25.8331 9.75264 25.8119C9.74229 25.7907 9.75264 25.7589 9.75264 25.7377C9.77333 25.6848 9.78368 25.6212 9.79403 25.5576C9.80437 25.4728 9.81472 25.3881 9.85611 25.3139C9.8768 25.2821 9.8768 25.2397 9.8768 25.2079C9.8768 25.1656 9.88715 25.1338 9.89749 25.102C9.92853 25.0384 9.95957 24.9642 9.94923 24.8901C9.94923 24.8583 9.95958 24.8265 9.96992 24.8053C9.98027 24.7523 10.001 24.6993 10.0113 24.6464C10.0217 24.5934 10.032 24.551 10.063 24.5086C10.0837 24.4768 10.0837 24.445 10.0837 24.4026C10.0837 24.3815 10.0941 24.3497 10.1044 24.3285C10.1355 24.2861 10.1458 24.2437 10.1355 24.1907C10.1355 24.1695 10.1458 24.1589 10.1458 24.1377C10.1769 23.9894 10.2079 23.8517 10.2389 23.7033C10.2493 23.6397 10.27 23.5762 10.2907 23.5126C10.301 23.4702 10.3114 23.4172 10.3217 23.3642C10.3321 23.2795 10.3631 23.1947 10.3838 23.1099C10.4148 23.0252 10.4459 22.9404 10.508 22.8662C10.5183 22.845 10.5183 22.8238 10.5286 22.8027C10.4873 22.7285 10.5183 22.6543 10.5286 22.5907C10.5286 22.5801 10.5286 22.5801 10.5286 22.5695C10.4976 22.5483 10.4666 22.5166 10.4355 22.4954C10.4252 22.4848 10.4045 22.4742 10.3838 22.4848C10.3321 22.4954 10.2907 22.4742 10.2493 22.4318C10.2389 22.4 10.2286 22.3576 10.2079 22.3152C10.1975 22.294 10.1665 22.2728 10.1458 22.2834C10.1148 22.294 10.0734 22.3046 10.0423 22.3152C9.98027 22.3258 9.92853 22.294 9.89749 22.2305C9.89749 22.2199 9.89749 22.2093 9.88715 22.1987C9.8768 22.1669 9.85611 22.1563 9.83541 22.1563C9.81472 22.1563 9.80437 22.1669 9.78368 22.1669C9.76299 22.1669 9.74229 22.1669 9.73195 22.1563C9.69056 22.1351 9.65952 22.0927 9.60779 22.0927C9.55605 22.0927 9.52501 22.0503 9.48362 22.0291C9.46293 22.0185 9.44224 22.0079 9.43189 21.9762C9.42154 21.9338 9.38016 21.9232 9.34912 21.9232C9.33877 21.9232 9.32842 21.9232 9.30773 21.9232C9.29738 21.8808 9.28703 21.8384 9.27669 21.8066C9.22495 21.7536 9.16287 21.796 9.10079 21.7748C9.05941 21.7536 9.00767 21.7219 8.97663 21.7007C8.95594 21.6689 8.94559 21.6371 8.94559 21.6159C8.94559 21.5947 8.94559 21.5841 8.94559 21.5629C8.93525 21.5523 8.9249 21.5417 8.90421 21.5311C8.85247 21.5205 8.81108 21.5417 8.75935 21.5099C8.749 21.4993 8.749 21.4781 8.73866 21.4676C8.72831 21.4464 8.70762 21.4252 8.68692 21.4146C8.5938 21.3934 8.54207 21.3298 8.47999 21.2768C8.45929 21.2556 8.44895 21.245 8.42825 21.2238C8.42825 21.1709 8.42825 21.1179 8.42825 21.0543C8.41791 21.0437 8.39721 21.0225 8.37652 21.0225C8.31444 21.0119 8.25236 21.0119 8.19028 20.9801C8.17993 20.9589 8.15924 20.9377 8.13855 20.9166C8.13855 20.8318 8.07646 20.8212 8.01438 20.8C7.98334 20.7576 7.94196 20.7258 7.91092 20.6834C7.87988 20.6517 7.84884 20.6093 7.82814 20.5669C7.82814 20.5457 7.80745 20.5351 7.7971 20.5245C7.67294 20.4397 7.60051 20.3126 7.50739 20.2066C7.51774 20.1536 7.51774 20.1007 7.54878 20.0583C7.55913 20.0371 7.55913 20.0371 7.52809 19.9947C7.46601 19.9841 7.40393 19.9735 7.34185 19.9311C7.32115 19.9205 7.30046 19.8993 7.3108 19.8675C7.32115 19.8464 7.3108 19.8146 7.29011 19.804C7.26942 19.7828 7.23838 19.7828 7.21768 19.751C7.22803 19.7192 7.22803 19.6768 7.23838 19.645C7.21768 19.6238 7.20734 19.6132 7.18664 19.6026C7.1556 19.5815 7.12456 19.5709 7.09352 19.5497C7.09352 19.5179 7.08318 19.4861 7.08318 19.4543C7.05214 19.4331 7.03144 19.4119 7.0004 19.3801C6.96936 19.3272 6.94867 19.2742 6.92797 19.2106C6.93832 19.1894 6.95902 19.1682 6.96936 19.147C6.97971 19.1364 7.0004 19.1258 7.01075 19.1152C7.0211 19.0623 6.99006 19.0199 6.96936 18.9775C6.90728 18.9351 6.8452 18.9033 6.78312 18.8609C6.73139 18.755 6.67965 18.649 6.64861 18.543C6.64861 18.5219 6.65896 18.5113 6.65896 18.5007C6.66931 18.4795 6.66931 18.4583 6.65896 18.4477C6.60723 18.4053 6.57619 18.3417 6.56584 18.2781C6.55549 18.2464 6.54514 18.204 6.5348 18.1828C6.55549 18.1298 6.57618 18.0874 6.58653 18.045C6.57618 18.0132 6.56584 18.0027 6.54515 17.9815C6.52445 17.9709 6.49341 17.9497 6.48306 17.9179C6.49341 17.8967 6.50376 17.8755 6.5141 17.8543C6.52445 17.8543 6.5348 17.8437 6.54515 17.8437C6.55549 17.8437 6.56584 17.8437 6.57619 17.8225C6.59688 17.7695 6.58653 17.706 6.60723 17.6424C6.61757 17.6212 6.59688 17.5788 6.57619 17.5682C6.55549 17.5576 6.54515 17.5576 6.52445 17.547C6.49341 17.5364 6.46237 17.5152 6.43133 17.5046C6.3796 17.4834 6.36925 17.4411 6.36925 17.3775C6.3796 17.3563 6.38994 17.3245 6.41064 17.3033C6.42098 17.3033 6.43133 17.3033 6.45203 17.2927C6.45203 17.2821 6.46237 17.2609 6.46237 17.2397C6.47272 17.2185 6.47272 17.1974 6.48306 17.1656C6.48306 17.1444 6.49341 17.1338 6.49341 17.1126C6.42098 17.0808 6.34856 17.0596 6.30717 17.0066C6.31752 16.9219 6.31752 16.9219 6.27613 16.8583C6.27613 16.8053 6.31752 16.7735 6.33821 16.7311C6.31752 16.6781 6.25544 16.6781 6.24509 16.6252C6.25544 16.604 6.26578 16.5828 6.27613 16.5616C6.29682 16.551 6.33821 16.5722 6.33821 16.5192C6.33821 16.4768 6.33821 16.4344 6.33821 16.3921C6.31752 16.3391 6.24509 16.3497 6.21405 16.2967C6.21405 16.2649 6.2244 16.2331 6.26578 16.2013C6.30717 16.1695 6.30717 16.1377 6.28648 16.106C6.27613 16.0848 6.25544 16.0742 6.23474 16.053C6.2037 16.0106 6.19336 15.9682 6.2037 15.9152C6.2244 15.8623 6.24509 15.8093 6.26578 15.7563C6.25544 15.6609 6.27613 15.555 6.30717 15.449C6.33821 15.3324 6.3589 15.2159 6.38994 15.0887C6.43133 14.9086 6.43133 14.7391 6.41064 14.5589C6.40029 14.506 6.41064 14.4636 6.40029 14.4106C6.38994 14.3788 6.41064 14.3364 6.41064 14.3046C6.38994 14.2834 6.3796 14.2517 6.3589 14.2305C6.3589 14.1987 6.36925 14.1775 6.36925 14.1457C6.3589 14.1245 6.33821 14.1139 6.33821 14.1033C6.33821 14.0503 6.33821 14.0079 6.30717 13.9656C6.30717 13.9126 6.29682 13.8702 6.27613 13.8278C6.26578 13.8066 6.26578 13.7748 6.26578 13.7536C6.27613 13.6901 6.26578 13.6371 6.25544 13.5735C6.28648 13.4676 6.30717 13.3722 6.32786 13.2662C6.34856 13.1391 6.38994 13.0225 6.42098 12.8954C6.43133 12.8742 6.43133 12.853 6.43133 12.8212C6.43133 12.8 6.38994 12.7576 6.36925 12.7682C6.34856 12.7788 6.32786 12.7894 6.30717 12.8C6.26578 12.8212 6.21405 12.8 6.19336 12.7682L6.18301 12.7576C6.16232 12.7046 6.14162 12.6411 6.12093 12.5881C6.10023 12.5351 6.06919 12.4927 6.0485 12.4397C5.99677 12.302 5.98642 12.1642 6.01746 12.0265C6.0485 11.8993 6.05885 11.7616 6.11058 11.645C6.10024 11.5709 6.10024 11.5073 6.08989 11.4543C6.08989 11.4013 6.08989 11.3589 6.14162 11.3272C6.16232 11.3166 6.17266 11.2848 6.17266 11.2636C6.17266 11.2106 6.17266 11.1682 6.17266 11.1152C6.19335 11.094 6.21405 11.0728 6.23474 11.0517C6.23474 11.0411 6.24509 11.0305 6.24509 11.0199C6.24509 10.9881 6.25544 10.9457 6.25544 10.9139C6.25544 10.8715 6.26578 10.8291 6.29682 10.7974C6.30717 10.7762 6.31752 10.755 6.32786 10.7338C6.33821 10.6278 6.38994 10.5325 6.42098 10.4371C6.43133 10.3947 6.47272 10.3629 6.49341 10.3311C6.50376 10.2993 6.5141 10.2675 6.5141 10.2252C6.5348 10.204 6.56584 10.1828 6.58653 10.1722C6.62792 10.1192 6.61757 10.045 6.63827 9.98146C6.65896 9.96026 6.67965 9.94967 6.70035 9.92848C6.72104 9.8649 6.70035 9.78013 6.78312 9.72715C6.82451 9.71656 6.87624 9.69536 6.92797 9.68477C6.94867 9.66358 6.95902 9.63179 6.95902 9.6106C6.95902 9.54702 6.95902 9.47285 6.95902 9.40927C7.05214 9.23974 7.1763 9.08079 7.27977 8.92185C7.30046 8.90066 7.32115 8.87947 7.34185 8.85828C7.40393 8.84768 7.45566 8.84768 7.50739 8.86887C7.51774 8.86887 7.53843 8.85828 7.55913 8.84768C7.55913 8.78411 7.54878 8.72053 7.54878 8.65695C7.54878 8.63576 7.54878 8.60397 7.54878 8.58278C7.57982 8.55099 7.57982 8.55099 7.62121 8.5404C7.63155 8.5298 7.63156 8.51921 7.6419 8.50861C7.65225 8.47682 7.65225 8.43444 7.6626 8.40265C7.68329 8.36027 7.70398 8.32848 7.75572 8.32848C7.78676 8.32848 7.8178 8.31788 7.83849 8.29669C7.85918 8.28609 7.86953 8.2649 7.86953 8.23311C7.86953 8.22252 7.86953 8.22252 7.86953 8.21192C7.84884 8.14834 7.87988 8.09536 7.92126 8.05298C7.9523 8.02119 7.98334 7.97881 8.01438 7.93642C8.08681 7.94702 8.09716 7.93642 8.11785 7.88344C8.11785 7.87285 8.1282 7.86225 8.1282 7.85166C8.1282 7.84106 8.13855 7.83046 8.14889 7.81987C8.15924 7.81987 8.17993 7.83046 8.19028 7.81987C8.20063 7.81987 8.22132 7.79868 8.23167 7.78808C8.24201 7.75629 8.24201 7.71391 8.25236 7.67152C8.29375 7.62914 8.34548 7.58675 8.39721 7.54437C8.44895 7.53377 8.50068 7.55497 8.55242 7.52318C8.56276 7.51258 8.57311 7.50199 8.57311 7.49139C8.58346 7.43841 8.58346 7.39603 8.5938 7.34305C8.62484 7.32185 8.64554 7.30066 8.66623 7.29007C8.71796 7.27947 8.7697 7.26887 8.82143 7.25828C8.84213 7.21589 8.83178 7.17351 8.84212 7.13113C8.84212 7.09934 8.86282 7.08874 8.90421 7.07815C8.9249 7.07815 8.93525 7.06755 8.95594 7.06755C8.96629 7.06755 8.97663 7.06755 8.98698 7.06755C9.00767 7.06755 9.01802 7.06755 9.03871 7.06755C9.06975 7.01457 9.04906 6.95099 9.06975 6.89801C9.0801 6.86623 9.11114 6.85563 9.13183 6.84503C9.17322 6.82384 9.21461 6.82384 9.256 6.82384C9.33877 6.82384 9.33877 6.82384 9.33877 6.74967C9.33877 6.71788 9.34912 6.68609 9.34912 6.6649C9.38016 6.62252 9.4112 6.60132 9.45258 6.59073C9.51467 6.59073 9.54571 6.54834 9.55605 6.48477C9.55605 6.48477 9.5664 6.47417 9.5664 6.46358C9.57674 6.46358 9.59744 6.46358 9.61813 6.47417C9.66987 6.48477 9.68021 6.48477 9.7216 6.52715C9.79403 6.50596 9.82507 6.45298 9.83541 6.37881C9.83541 6.35762 9.83541 6.32583 9.83541 6.30464C9.83541 6.28344 9.84576 6.27285 9.84576 6.25166C9.88715 6.25166 9.92854 6.24106 9.96992 6.24106C9.96992 6.26225 9.96992 6.28344 9.96992 6.29404C9.96992 6.30464 9.98027 6.31523 9.99062 6.31523C10.001 6.31523 10.001 6.31523 10.0113 6.31523C10.0217 6.29404 10.0423 6.27285 10.0423 6.25166C10.0527 6.21987 10.0527 6.18808 10.0527 6.15629C10.0527 6.1351 10.0527 6.10331 10.0734 6.08212C10.1044 6.08212 10.1458 6.08212 10.1769 6.08212C10.1872 6.10331 10.1976 6.11391 10.2182 6.1351C10.2493 6.1245 10.2596 6.10331 10.27 6.08212C10.2803 6.02914 10.2803 5.97616 10.2907 5.92318C10.3114 5.92318 10.3217 5.91258 10.3321 5.91258C10.3734 5.92318 10.4045 5.90199 10.4148 5.8596C10.4252 5.83841 10.4355 5.81722 10.4459 5.79603C10.4769 5.79603 10.4976 5.79603 10.5183 5.79603C10.57 5.77483 10.5804 5.72185 10.6114 5.69007C10.6632 5.69007 10.7149 5.67947 10.7356 5.62649C10.7459 5.6053 10.7563 5.5947 10.7563 5.57351C10.7666 5.56291 10.777 5.56291 10.7873 5.56291C10.8184 5.57351 10.839 5.55232 10.8494 5.54172C10.8701 5.52053 10.8804 5.48874 10.9011 5.45695C10.9218 5.45695 10.9425 5.45695 10.9632 5.45695C10.9839 5.45695 10.9943 5.45695 11.0149 5.44636C11.0253 5.46755 11.0253 5.48874 11.0356 5.52053C11.046 5.52053 11.0563 5.52053 11.0667 5.50993C11.0874 5.47815 11.1081 5.44636 11.1081 5.41457C11.1081 5.38278 11.1081 5.3404 11.1184 5.30861C11.1288 5.30861 11.1391 5.29801 11.1495 5.30861C11.1701 5.30861 11.2012 5.30861 11.2115 5.28742C11.2529 5.25563 11.2633 5.19205 11.315 5.17086C11.3564 5.14967 11.3978 5.11788 11.4185 5.09669C11.4599 5.09669 11.4909 5.08609 11.5219 5.09669C11.553 5.09669 11.584 5.11788 11.6047 5.11788C11.6357 5.11788 11.6668 5.10728 11.6875 5.10728C11.7496 5.14967 11.822 5.11788 11.8944 5.13907C11.8944 5.11788 11.9048 5.09669 11.8944 5.08609C11.8634 5.02252 11.8634 4.95894 11.8634 4.88477C11.8634 4.87417 11.8737 4.86358 11.8737 4.84238C11.9151 4.84238 11.9565 4.83179 11.9979 4.83179C11.9979 4.84238 11.9979 4.86358 11.9979 4.87417C11.9979 4.89536 12.0289 4.90596 12.0393 4.89536C12.0703 4.87417 12.1014 4.85298 12.1117 4.8106C12.122 4.77881 12.1117 4.73642 12.1427 4.70464C12.1738 4.70464 12.2048 4.70464 12.2462 4.71523C12.2462 4.73642 12.2566 4.74702 12.2566 4.76821C12.2876 4.77881 12.3186 4.76821 12.329 4.74702C12.3393 4.72583 12.3497 4.70464 12.36 4.68344C12.3704 4.65166 12.3807 4.61987 12.4014 4.59867C12.4221 4.57748 12.4531 4.57748 12.4738 4.54569C12.5256 4.5351 12.567 4.49271 12.629 4.49271C12.6497 4.49271 12.6704 4.48212 12.6911 4.48212C12.7015 4.46093 12.7118 4.45033 12.7325 4.43973C12.7946 4.43973 12.8567 4.45033 12.8877 4.38675C12.8981 4.36556 12.9187 4.36556 12.9291 4.36556C12.9808 4.35497 13.0222 4.30199 13.0739 4.30199C13.1153 4.30199 13.1671 4.2808 13.2188 4.30199C13.2705 4.32318 13.3223 4.31258 13.374 4.29139C13.4154 4.2702 13.3844 4.21722 13.3844 4.21722C13.4361 4.16424 13.4775 4.18543 13.5085 4.16424C13.5292 4.14305 13.5602 4.13245 13.5809 4.11126C13.6327 4.12185 13.6741 4.05828 13.7258 4.06887C13.7465 4.06887 13.7672 4.05828 13.7982 4.05828C13.8086 4.05828 13.8189 4.04768 13.8293 4.03709C13.912 3.9947 14.0052 3.96291 14.1086 3.9947C14.119 3.9947 14.1293 3.9947 14.1397 3.9947C14.1707 3.98411 14.1707 3.95232 14.2017 3.93113C14.2535 3.90993 14.2949 3.87815 14.3569 3.88874C14.388 3.88874 14.419 3.87815 14.4397 3.86755C14.4604 3.85695 14.4811 3.84636 14.5121 3.84636C14.5639 3.83576 14.6156 3.82516 14.6673 3.80397C14.7398 3.76159 14.8122 3.76159 14.895 3.77219C14.926 3.77219 14.9571 3.78278 14.9881 3.77219C15.0088 3.77219 15.0398 3.76159 15.0605 3.76159C15.0812 3.7298 15.0916 3.69801 15.1226 3.68742C15.1433 3.67682 15.1743 3.67682 15.195 3.64503C15.2571 3.62384 15.3192 3.60265 15.3813 3.60265C15.464 3.59205 15.5468 3.57086 15.6296 3.56027C15.7227 3.54967 15.8158 3.50729 15.8986 3.4755C15.9193 3.4649 15.94 3.44371 15.9503 3.43311C15.9503 3.41192 15.9607 3.40132 15.9607 3.39073C15.9503 3.33775 15.9607 3.28477 15.9917 3.23179C16.0228 3.17881 16.0331 3.13642 16.0435 3.07285C16.0538 3.03046 16.0745 2.97748 16.0849 2.9351C16.0952 2.90331 16.1262 2.87152 16.1469 2.82914C16.1573 2.75497 16.1573 2.6596 16.209 2.58543C16.2194 2.57483 16.2194 2.55364 16.2194 2.53245C16.2297 2.44768 16.2711 2.38411 16.3125 2.30993C16.3125 2.17219 16.3642 2.05563 16.4263 1.91788C16.4263 1.84371 16.4366 1.76954 16.4677 1.69536C16.4884 1.65298 16.4987 1.6 16.5091 1.55762C16.5298 1.47285 16.5608 1.39868 16.6229 1.3245C16.6643 1.27152 16.685 1.20795 16.6746 1.13377C16.6643 1.09139 16.6746 1.04901 16.6953 1.00662C16.7367 0.921854 16.7781 0.82649 16.8195 0.741722C16.8505 0.66755 16.8919 0.603974 16.9333 0.529801C16.954 0.487417 16.9747 0.455628 16.985 0.413244C17.0264 0.286092 17.0988 0.169537 17.1816 0.0635768C17.192 0.0529808 17.2023 0.0423844 17.223 0.0317884C17.2437 0.0211924 17.2644 0.0211921 17.2747 0.0529801C17.2747 0.0635762 17.2851 0.0741725 17.2851 0.0847685C17.3472 0.0953646 17.4092 0.116556 17.4713 0.127152C17.5127 0.10596 17.5437 0.0741728 17.5851 0.0635768C17.6162 0.0635768 17.6472 0.0529795 17.6679 0.0423835C17.6989 0.0317874 17.7196 0.0211921 17.7507 0C17.8128 0.0423841 17.8748 0.0741725 17.9162 0.137749C17.9473 0.190729 17.999 0.222517 18.0507 0.264901C18.0818 0.286093 18.1128 0.296688 18.1542 0.307284C18.1646 0.328476 18.1749 0.349669 18.1749 0.370861C18.1852 0.476821 18.1646 0.582781 18.1335 0.678145C18.1232 0.720529 18.1025 0.762914 18.0921 0.794702C18.0818 0.837086 18.0611 0.87947 18.0611 0.921854C18.0507 1.00662 18.03 1.08079 18.0093 1.15497C17.9783 1.27152 17.9266 1.38808 17.8748 1.49404C17.8645 1.51523 17.8542 1.53642 17.8438 1.55762C17.8438 1.57881 17.8438 1.5894 17.8541 1.6106C17.8541 1.63179 17.8645 1.64238 17.8645 1.66358C17.8438 1.80132 17.8024 1.92848 17.7817 2.05563C17.7817 2.07682 17.7714 2.09801 17.761 2.11921C17.73 2.18278 17.6989 2.24636 17.7093 2.30993C17.6783 2.3947 17.6472 2.47947 17.6058 2.56424C17.5541 2.68079 17.5231 2.80795 17.461 2.9245C17.4506 2.99868 17.4092 3.06225 17.3782 3.12583C17.3679 3.15762 17.3575 3.17881 17.3472 3.2106C17.3368 3.23179 17.3782 3.28477 17.3989 3.27417C17.4506 3.25298 17.5024 3.26358 17.5541 3.26358C17.6058 3.25298 17.6472 3.26358 17.6989 3.27417C17.7196 3.28477 17.7507 3.28477 17.7714 3.27417C17.8852 3.24238 18.0094 3.25298 18.1335 3.25298C18.1956 3.25298 18.1956 3.25298 18.2577 3.30596C18.3198 3.30596 18.3198 3.2106 18.3922 3.24238C18.4336 3.23179 18.4853 3.2106 18.5267 3.2C18.537 3.2 18.537 3.2 18.537 3.2C18.5681 3.2106 18.5991 3.2106 18.6302 3.22119C18.7026 3.23179 18.775 3.2106 18.8474 3.24238C18.8992 3.24238 18.9406 3.23179 18.9923 3.23179C19.0337 3.23179 19.0751 3.22119 19.1268 3.25298C19.1475 3.28477 19.1682 3.32715 19.1889 3.36954C19.1992 3.38013 19.2096 3.39073 19.2199 3.39073C19.282 3.40132 19.313 3.44371 19.3337 3.49669C19.3441 3.52848 19.3544 3.57086 19.3544 3.60265C19.3544 3.63444 19.3544 3.67682 19.3544 3.70861C19.3544 3.75099 19.3544 3.79338 19.3648 3.83576C19.3855 3.90993 19.3958 3.9947 19.3751 4.06887C19.3648 4.07947 19.3544 4.09007 19.3544 4.10066C19.313 4.13245 19.3234 4.16424 19.3441 4.19603C19.3544 4.20662 19.3648 4.22781 19.3751 4.23841C19.3751 4.29139 19.3648 4.34437 19.3544 4.39735C19.3544 4.40795 19.3441 4.41854 19.3441 4.42914C19.3441 4.43974 19.3337 4.43973 19.3337 4.43973C19.3234 4.45033 19.313 4.46093 19.313 4.46093C19.251 4.48212 19.1889 4.47152 19.1371 4.46093C19.1061 4.46093 19.0751 4.46093 19.0544 4.47152C19.0026 4.50331 18.9406 4.51391 18.8785 4.51391C18.8681 4.51391 18.8474 4.5245 18.8371 4.54569C18.8164 4.59867 18.775 4.61987 18.7233 4.61987C18.5888 4.60927 18.475 4.66225 18.3611 4.71523C18.3404 4.72583 18.3301 4.74702 18.3301 4.77881C18.3301 4.8 18.3301 4.83179 18.3198 4.84238C18.2887 4.88477 18.2473 4.84238 18.2266 4.87417C18.1749 4.85298 18.1335 4.84238 18.0818 4.82119C18.0507 4.83179 18.0197 4.83179 17.9783 4.84238C17.968 4.85298 17.968 4.86358 17.9576 4.87417C17.9473 4.88477 17.9369 4.89536 17.9369 4.89536C17.8955 4.86358 17.8438 4.89536 17.8024 4.87417C17.761 4.89536 17.7196 4.87417 17.6783 4.85298C17.6472 4.84238 17.6058 4.84238 17.5748 4.84238C17.5231 4.85298 17.4817 4.84238 17.4196 4.84238C17.4092 4.85298 17.3885 4.87417 17.3679 4.89536C17.3368 4.89536 17.3058 4.89536 17.2747 4.90596C17.2023 4.87417 17.1299 4.91656 17.0678 4.89536C17.0471 4.92715 17.0264 4.95894 17.0161 4.99073C16.9954 4.98013 16.9747 4.98013 16.954 4.96954C16.9333 4.95894 16.9126 4.94835 16.8919 4.93775C16.8609 4.93775 16.8505 4.96954 16.8298 4.99073C16.7988 4.99073 16.7677 4.99073 16.7367 5.00132C16.7264 5.01192 16.716 5.01192 16.7057 5.02252C16.685 5.0755 16.6643 5.11788 16.6436 5.17086C16.5712 5.40397 16.478 5.62649 16.4056 5.8702C16.3435 6.00795 16.3125 6.15629 16.2607 6.30464C16.209 6.44238 16.178 6.59073 16.1055 6.71788C16.0952 6.72848 16.0952 6.73907 16.0952 6.74967C16.0642 6.86622 16.0331 6.98278 16.0021 7.10993C15.9917 7.14172 16.0124 7.17351 15.9917 7.1947C15.9814 7.21589 15.971 7.23709 15.9607 7.25828C15.9607 7.25828 15.9607 7.26887 15.9503 7.27947C15.9503 7.29007 15.9503 7.30066 15.9607 7.31126C16.0021 7.37483 16.0021 7.43841 15.94 7.49139C15.9297 7.50199 15.9297 7.51258 15.9193 7.52318C15.909 7.54437 15.909 7.56556 15.909 7.59735C15.9193 7.61854 15.9297 7.63974 15.94 7.66093C15.9503 7.69272 15.9503 7.7351 15.9193 7.76689C15.8883 7.79868 15.8572 7.81987 15.8365 7.86225C15.8262 7.90464 15.8676 7.92583 15.8676 7.96821C15.8365 8.02119 15.7848 8.04238 15.7331 8.08477C15.7331 8.10596 15.7331 8.12715 15.7331 8.13775C15.7434 8.22252 15.7538 8.30728 15.7745 8.39205C15.8055 8.49801 15.7848 8.60397 15.7124 8.67815C15.6917 8.74172 15.7331 8.7947 15.7124 8.84768C15.702 8.89007 15.6917 8.94305 15.6813 8.99603C15.671 9.02781 15.671 9.0596 15.6606 9.08079C15.6089 9.19735 15.5986 9.31391 15.5779 9.44106C15.5675 9.51523 15.5468 9.57881 15.5261 9.65298C15.5365 9.66358 15.5468 9.66358 15.5572 9.66358C15.5882 9.65298 15.6193 9.65298 15.6503 9.64238C15.7227 9.63179 15.8055 9.62119 15.8779 9.63179C15.9607 9.64238 16.0435 9.64238 16.1262 9.65298C16.1366 9.65298 16.1469 9.65298 16.1676 9.64238C16.178 9.63179 16.1883 9.6106 16.209 9.6C16.2401 9.6 16.2711 9.6106 16.3021 9.6C16.3332 9.5894 16.3539 9.6106 16.3849 9.5894C16.447 9.55762 16.5091 9.56821 16.5815 9.56821C16.685 9.56821 16.7884 9.57881 16.8919 9.57881C16.9022 9.55762 16.9229 9.54702 16.9436 9.51523C16.954 9.51523 16.9747 9.51523 16.9954 9.51523C17.0161 9.51523 17.0161 9.51523 17.0368 9.49404C17.0471 9.49404 17.0575 9.48344 17.0678 9.48344C17.1195 9.48344 17.1713 9.48344 17.223 9.47285C17.2851 9.46225 17.3368 9.45166 17.3989 9.46225C17.461 9.47285 17.5127 9.44106 17.5955 9.44106C17.6162 9.45166 17.6576 9.47285 17.6886 9.48344C17.7196 9.46225 17.7403 9.45166 17.761 9.43046C17.8024 9.45166 17.8541 9.47285 17.9059 9.45166C17.9162 9.44106 17.9266 9.41987 17.9369 9.40927C17.9473 9.39868 17.9576 9.37748 17.9783 9.38808C18.0197 9.39868 18.0611 9.37748 18.1025 9.37748C18.1439 9.37748 18.1852 9.36689 18.2266 9.35629C18.2577 9.36689 18.2991 9.37748 18.3301 9.38808C18.3715 9.36689 18.4336 9.37748 18.475 9.3457C18.4956 9.3351 18.5267 9.3351 18.537 9.3245C18.5784 9.29272 18.6302 9.3245 18.6715 9.30331C18.7129 9.28212 18.7543 9.29272 18.7957 9.28212C18.8578 9.26093 18.9302 9.27152 18.9923 9.28212C19.044 9.29272 19.0958 9.29272 19.1475 9.27152C19.1992 9.28212 19.2406 9.27152 19.282 9.25033C19.3027 9.23974 19.3234 9.23973 19.3544 9.23973C19.3751 9.23973 19.4062 9.23973 19.4269 9.23973C19.4682 9.22914 19.5096 9.19735 19.5614 9.21854C19.6028 9.22914 19.6545 9.23974 19.6959 9.25033C19.7166 9.23974 19.7373 9.21854 19.758 9.20795C19.8304 9.18675 19.9028 9.20795 19.9649 9.23973C19.9959 9.20795 20.0166 9.18676 20.0373 9.17616C20.0787 9.17616 20.1201 9.17616 20.1615 9.17616C20.1925 9.17616 20.2339 9.18676 20.2546 9.19735C20.2856 9.18676 20.2856 9.15497 20.3167 9.15497C20.4201 9.16556 20.5236 9.13377 20.6271 9.11258C20.6478 9.11258 20.6685 9.09139 20.6995 9.10199C20.7823 9.12318 20.8651 9.09139 20.9478 9.08079C21.0513 9.0702 21.1548 9.04901 21.2375 9.09139C21.2893 9.0702 21.31 9.03841 21.3617 9.03841C21.4341 9.03841 21.5169 9.01722 21.5893 9.00662C21.6618 8.99603 21.7342 8.98543 21.8066 8.98543C21.817 8.98543 21.817 8.98543 21.8273 8.98543C21.848 8.98543 21.8687 8.94305 21.8583 8.92185C21.8377 8.87947 21.817 8.83709 21.7859 8.7947C21.7549 8.77351 21.7135 8.75232 21.6824 8.72053C21.6514 8.68874 21.6514 8.63576 21.6204 8.60397C21.579 8.58278 21.5376 8.56159 21.4962 8.5298C21.4548 8.49801 21.4238 8.46623 21.3824 8.43444C21.341 8.40265 21.31 8.37086 21.2893 8.32848C21.2893 8.31788 21.2789 8.30728 21.2686 8.30728C21.2065 8.2755 21.1651 8.22252 21.1134 8.18013C21.072 8.13775 21.0306 8.09536 20.9789 8.05298C20.9789 8.02119 20.9789 7.9894 20.9789 7.94702C20.9789 7.91523 20.9582 7.89404 20.9582 7.87285C20.9168 7.83046 20.8651 7.85165 20.834 7.83046C20.803 7.80927 20.7719 7.79868 20.7409 7.78808C20.7099 7.75629 20.6788 7.71391 20.6374 7.68212C20.6064 7.66093 20.5753 7.61854 20.5443 7.59735C20.4926 7.56556 20.4615 7.52318 20.4512 7.4702C20.4512 7.44901 20.4408 7.43841 20.4305 7.41722C20.3891 7.39603 20.3374 7.38543 20.3063 7.35364C20.2649 7.32185 20.2339 7.29007 20.1925 7.26887C20.1718 7.25828 20.1615 7.23709 20.1511 7.21589C20.1511 7.1947 20.1408 7.18411 20.1304 7.16291C20.0787 7.14172 20.0166 7.12053 19.9649 7.09934C19.9338 7.04636 19.8718 7.05695 19.82 7.02517C19.7683 6.98278 19.7269 6.95099 19.6752 6.91921C19.6648 6.88742 19.6441 6.85563 19.6338 6.83444C19.6028 6.82384 19.5821 6.81324 19.551 6.80265C19.5407 6.6649 19.52 6.52715 19.5096 6.37881C19.5096 6.35762 19.52 6.33642 19.5303 6.31523C19.5614 6.27285 19.551 6.23046 19.52 6.19868L19.5096 6.18808C19.4372 6.14569 19.3855 6.07152 19.3337 6.00795C19.2923 5.95497 19.282 5.91258 19.3027 5.84901C19.3027 5.83841 19.3027 5.83841 19.3027 5.82781C19.2717 5.76424 19.2613 5.69007 19.2199 5.62649C19.2199 5.61589 19.2199 5.6053 19.2303 5.5947C19.2717 5.53113 19.3234 5.46755 19.3648 5.40397C19.4579 5.35099 19.5614 5.31921 19.6545 5.27682C19.6855 5.26623 19.7166 5.25563 19.7373 5.25563C19.789 5.25563 19.8407 5.24503 19.8925 5.21324C19.9545 5.18146 20.0063 5.19205 20.0684 5.22384C20.0787 5.23444 20.089 5.23444 20.0994 5.23444C20.1615 5.28742 20.2132 5.3404 20.2856 5.38278C20.3477 5.41457 20.3995 5.47815 20.4719 5.49934C20.6478 5.61589 20.834 5.70066 21.0099 5.78543C21.1651 5.8596 21.31 5.93377 21.4445 6.03974C21.4548 6.05033 21.4755 6.06093 21.4859 6.07152C21.6721 6.16689 21.8273 6.29404 21.9929 6.42119C22.0653 6.47417 22.117 6.53775 22.1687 6.60132C22.1998 6.6543 22.2515 6.69669 22.3033 6.72848C22.3653 6.76026 22.4171 6.81325 22.4688 6.86623C22.593 6.99338 22.7171 7.12053 22.8206 7.25828C22.8723 7.32185 22.9137 7.38543 22.9551 7.4596C22.9965 7.53377 23.0482 7.58676 23.0896 7.66093C23.1206 7.71391 23.162 7.76689 23.2138 7.81987C23.2552 7.87285 23.3069 7.91523 23.3586 7.96821C23.4517 8.06358 23.5345 8.14835 23.5759 8.2755C23.638 8.32848 23.6897 8.37086 23.7415 8.42384C23.7932 8.47682 23.8449 8.5298 23.8863 8.58278C23.907 8.60397 23.9173 8.63576 23.9277 8.65695C23.938 8.68874 23.9587 8.70993 23.9898 8.72053C24.1243 8.69934 24.1243 8.69934 24.2484 8.74172C24.2795 8.74172 24.2898 8.69934 24.3105 8.68874C24.3519 8.66755 24.383 8.70993 24.414 8.68874C24.445 8.66755 24.4864 8.69934 24.5175 8.69934C24.6106 8.67815 24.6934 8.70993 24.7865 8.70993C24.8175 8.70993 24.8486 8.69934 24.8796 8.69934C24.9106 8.69934 24.9417 8.70993 24.9727 8.70993C24.9934 8.70993 25.0038 8.69934 25.0141 8.69934C25.0555 8.67815 25.0451 8.63576 25.0658 8.61457C25.0865 8.59338 25.1176 8.57219 25.1486 8.56159C25.1693 8.56159 25.1797 8.56159 25.2003 8.56159C25.2314 8.56159 25.2728 8.55099 25.3038 8.55099C25.3659 8.5404 25.428 8.51921 25.5004 8.50861C25.5935 8.49801 25.6866 8.48742 25.7798 8.46622C25.8522 8.44503 25.9246 8.46623 25.9764 8.48742C26.0384 8.48742 26.0488 8.42384 26.1005 8.44503C26.1316 8.43444 26.1729 8.42384 26.204 8.42384C26.2454 8.41325 26.2868 8.40265 26.3281 8.41324C26.3695 8.42384 26.4109 8.39205 26.4523 8.39205C26.4833 8.40265 26.5247 8.39205 26.5558 8.39205C26.5765 8.39205 26.6075 8.38146 26.6282 8.38146C26.7317 8.34967 26.8351 8.33907 26.9489 8.33907C26.9696 8.33907 27.0007 8.33907 27.0214 8.32848C27.1559 8.30729 27.2904 8.28609 27.4352 8.30728C27.4559 8.30728 27.487 8.30728 27.4973 8.28609C27.4973 8.28609 27.5077 8.2755 27.518 8.2755C27.5801 8.2755 27.6318 8.2649 27.6939 8.2649C27.756 8.2543 27.8077 8.23311 27.8698 8.23311C27.8905 8.23311 27.9215 8.22252 27.9422 8.22252C28.056 8.19073 28.1595 8.19073 28.2837 8.21192C28.3458 8.22252 28.4182 8.22252 28.4699 8.22252C28.5113 8.21192 28.532 8.14835 28.5837 8.16954C28.6044 8.15894 28.6251 8.14834 28.6458 8.13775C28.6665 8.13775 28.6975 8.13775 28.7182 8.14834C28.77 8.14834 28.8114 8.14834 28.8631 8.14834C28.9045 8.10596 28.9562 8.14835 28.9976 8.11656C29.0183 8.10596 29.0597 8.09536 29.0804 8.09536C29.1321 8.10596 29.1735 8.07417 29.2252 8.08477C29.2459 8.08477 29.277 8.08477 29.2977 8.08477C29.3287 8.09536 29.3701 8.09536 29.3908 8.10596C29.4115 8.09536 29.4322 8.08477 29.4529 8.09536C29.5667 8.13775 29.6908 8.12715 29.7943 8.13775C29.815 8.12715 29.8253 8.12715 29.8357 8.11656C29.8667 8.09536 29.8978 8.07417 29.9392 8.09536C29.9702 8.07417 30.0116 8.09536 30.0426 8.09536C30.0737 8.09536 30.1151 8.08477 30.1461 8.08477C30.1978 8.07417 30.2496 8.07417 30.3013 8.07417C30.3427 8.08477 30.3841 8.07417 30.4255 8.06358C30.4668 8.05298 30.4979 8.04238 30.5393 8.02119C30.56 8.05298 30.5807 8.08477 30.6014 8.10596C30.6427 8.10596 30.6531 8.08477 30.6738 8.06358C30.7048 8.04238 30.7359 8.05298 30.7462 8.08477C30.7566 8.10596 30.7566 8.11656 30.7669 8.13775C30.7772 8.15894 30.7876 8.18013 30.7876 8.20132C30.8186 8.23311 30.8393 8.21192 30.86 8.21192C30.8911 8.22252 30.9118 8.24371 30.9325 8.2649C30.9531 8.31788 30.9738 8.37086 30.9738 8.42384C30.9738 8.47682 30.9738 8.51921 30.9635 8.59338C30.9738 8.66755 31.0256 8.77351 30.9842 8.87947C30.9738 8.87947 30.9738 8.89007 30.9635 8.90066C30.9324 8.94305 30.9221 8.95364 30.9428 8.99603C30.9531 9.01722 30.9635 9.02781 30.9738 9.04901C30.9738 9.09139 30.9738 9.14437 30.9635 9.18675C30.9635 9.21854 30.9428 9.25033 30.9221 9.27152C30.9118 9.28212 30.9014 9.28212 30.8911 9.28212C30.8807 9.25033 30.8704 9.21854 30.8497 9.18675C30.829 9.17616 30.8083 9.17616 30.8083 9.19735C30.7979 9.25033 30.7772 9.29272 30.7462 9.3245C30.7359 9.3351 30.7255 9.3351 30.7152 9.3457C30.6841 9.35629 30.6531 9.3457 30.6324 9.3351C30.591 9.31391 30.5393 9.31391 30.4979 9.3245C30.4048 9.40927 30.4048 9.40927 30.2806 9.44106C30.2703 9.46225 30.2496 9.49404 30.2289 9.51523C30.2082 9.50464 30.1978 9.50464 30.1771 9.49404C30.1461 9.47285 30.1047 9.47285 30.0737 9.47285C30.0426 9.47285 30.0116 9.49404 30.0012 9.52583C29.9909 9.54702 29.9909 9.55762 29.9805 9.57881C29.9185 9.5894 29.9185 9.64238 29.8978 9.68477C29.846 9.69536 29.8047 9.65298 29.7529 9.68477C29.7426 9.69536 29.7322 9.70596 29.7219 9.72715C29.6908 9.73775 29.6598 9.71656 29.6391 9.72715C29.6288 9.72715 29.6184 9.72715 29.6081 9.72715C29.546 9.67417 29.4736 9.66358 29.3908 9.68477C29.3701 9.69536 29.3597 9.71656 29.339 9.72715C29.2977 9.71656 29.2563 9.74834 29.2149 9.72715C29.1632 9.69536 29.1011 9.70596 29.039 9.70596C29.008 9.70596 28.9666 9.71656 28.9355 9.72715C28.9045 9.72715 28.8734 9.71656 28.8424 9.72715C28.8114 9.73775 28.8114 9.78013 28.801 9.80132C28.7079 9.82252 28.6044 9.80132 28.5217 9.84371C28.4906 9.84371 28.4699 9.82252 28.4389 9.8543C28.4285 9.8649 28.4182 9.8543 28.4078 9.84371C28.3561 9.81192 28.3147 9.80132 28.2733 9.82252C28.2319 9.84371 28.1906 9.84371 28.1595 9.82252C28.0871 9.78013 28.0354 9.78013 27.994 9.8543C27.9733 9.88609 27.9009 9.90728 27.8698 9.89669C27.8284 9.88609 27.787 9.89669 27.7456 9.88609C27.7043 9.8755 27.6629 9.8649 27.6215 9.89669C27.5904 9.91788 27.5491 9.93907 27.5077 9.93907C27.4766 9.93907 27.4559 9.94967 27.4352 9.97086C27.4146 9.96027 27.3939 9.93907 27.3732 9.96026C27.3628 9.97086 27.3525 9.97086 27.3421 9.97086C27.3214 9.96027 27.3007 9.93907 27.28 9.93907C27.249 9.92848 27.2076 9.92848 27.1766 9.96026C27.1662 9.97086 27.1559 9.97086 27.1455 9.98146C27.1042 9.97086 27.0628 9.94967 27.0317 9.93907C27.0007 9.93907 26.9903 9.97086 26.9593 9.99205C26.9076 10.0026 26.8455 10.0132 26.7834 10.0238C26.7524 10.0132 26.7006 9.99205 26.6592 9.98146C26.6075 9.99205 26.5661 10.0026 26.5351 10.0556C26.5247 10.0662 26.4213 10.0768 26.4006 10.0768C26.3902 10.0768 26.3902 10.0768 26.3799 10.0662C26.3488 10.0556 26.3178 10.0556 26.2971 10.0768C26.2764 10.0874 26.2661 10.1192 26.2557 10.1404C26.235 10.1298 26.2247 10.1192 26.204 10.1192C26.1833 10.1616 26.1419 10.151 26.1109 10.1404C26.1005 10.151 26.0798 10.1616 26.0695 10.1722C26.0281 10.1298 25.9764 10.1192 25.9246 10.1404C25.9039 10.1616 25.8936 10.1934 25.8522 10.1828C25.8315 10.1828 25.8108 10.1934 25.7798 10.1934C25.728 10.1404 25.666 10.1192 25.5935 10.1404C25.5521 10.151 25.5004 10.151 25.4487 10.1616C25.428 10.151 25.4073 10.1404 25.3866 10.1298C25.3452 10.1192 25.3038 10.1086 25.2624 10.1404C25.2107 10.1722 25.1486 10.1828 25.0969 10.2146C25.0865 10.2358 25.0762 10.2675 25.0658 10.2993C25.0451 10.2887 25.0245 10.2781 25.0038 10.2675H24.9934L24.9831 10.2781C24.9934 10.3099 25.0038 10.3311 25.0141 10.3629C25.0348 10.4053 25.0555 10.4477 25.0658 10.5007C25.0762 10.543 25.0865 10.5748 25.1176 10.6172C25.1383 10.6596 25.1383 10.7126 25.1383 10.7656C25.1279 10.7762 25.1176 10.7868 25.0969 10.7974C25.0762 10.8185 25.0762 10.8503 25.0969 10.8609C25.1383 10.8821 25.1693 10.9033 25.1797 10.9457C25.1797 10.9669 25.2003 10.9775 25.2107 10.9881C25.2521 11.0305 25.2728 11.0728 25.2728 11.1364C25.3245 11.2424 25.3349 11.3589 25.3762 11.4649C25.4073 11.5497 25.4176 11.645 25.4383 11.7298C25.4487 11.751 25.4383 11.7828 25.428 11.804C25.4176 11.8675 25.4073 11.8676 25.428 11.9311C25.4073 11.9523 25.3866 11.9629 25.3555 11.9841C25.4073 12.0689 25.428 12.1113 25.5314 12.2066C25.5521 12.2384 25.5107 12.2808 25.5418 12.3126C25.5521 12.3232 25.5625 12.355 25.5521 12.3656C25.5314 12.3974 25.5728 12.4397 25.5418 12.4715C25.5107 12.5033 25.5107 12.5457 25.5211 12.5881C25.5314 12.6199 25.5314 12.6623 25.5314 12.694C25.5314 12.7152 25.5418 12.7364 25.5521 12.7682C25.5418 12.8 25.5418 12.8424 25.5314 12.8848C25.5211 12.9272 25.5418 12.9695 25.5728 13.0013C25.5832 13.0119 25.5935 13.0225 25.5935 13.0225C25.5935 13.0861 25.6556 13.1179 25.6659 13.1709C25.6763 13.2026 25.6866 13.245 25.697 13.2662C25.6866 13.3086 25.666 13.3404 25.697 13.3722C25.7073 13.3828 25.7177 13.404 25.7177 13.4252C25.7177 13.4993 25.7487 13.5735 25.7591 13.6477C25.7487 13.6689 25.728 13.7113 25.7177 13.743C25.7177 13.8066 25.7073 13.8596 25.7073 13.9232C25.728 13.9444 25.7487 13.9656 25.7694 13.9868C25.7694 14.0397 25.7591 14.0821 25.7901 14.1245C25.8108 14.1457 25.8005 14.1881 25.7901 14.2093C25.7798 14.2305 25.7798 14.2411 25.7694 14.2623C25.7798 14.3046 25.8005 14.3364 25.8108 14.3788C25.8212 14.4848 25.8212 14.6013 25.8108 14.7073C25.8005 14.7815 25.8212 14.8662 25.8108 14.951C25.8005 15.0252 25.7901 15.1099 25.7901 15.1841C25.7901 15.1947 25.7901 15.1947 25.7901 15.2053C25.7694 15.2689 25.8005 15.3325 25.7798 15.3854C25.7694 15.4384 25.7487 15.4914 25.728 15.5338C25.7384 15.5762 25.7487 15.6079 25.7591 15.6397C25.7487 15.6715 25.7384 15.7033 25.728 15.7457C25.7177 15.7987 25.7073 15.8517 25.7384 15.9046C25.7487 15.9258 25.7487 15.947 25.7487 15.9788C25.7487 16.0636 25.7487 16.1377 25.7177 16.2119C25.697 16.2861 25.6659 16.3497 25.6763 16.4238C25.6763 16.4556 25.666 16.4874 25.6556 16.5086C25.6349 16.551 25.6142 16.5934 25.5832 16.6358C25.5521 16.6993 25.5107 16.7523 25.4901 16.8159C25.4797 16.8371 25.4694 16.8583 25.4487 16.8795C25.3555 17.0172 25.2521 17.1444 25.159 17.2821C25.1176 17.3351 25.0762 17.3881 25.0451 17.4517C25.0245 17.4834 25.0141 17.5152 24.9831 17.5364C24.9624 17.547 24.952 17.5788 24.9417 17.6C24.921 17.6424 24.9106 17.6742 24.8899 17.7166C24.8692 17.7589 24.8382 17.7907 24.8072 17.8119C24.7658 17.8437 24.7244 17.8649 24.6727 17.8649C24.5795 17.8649 24.4968 17.8967 24.4036 17.8967C24.3623 17.8967 24.3209 17.9179 24.2898 17.9497C24.2381 18.0132 24.176 18.045 24.1243 18.0768C24.1036 18.1192 24.0932 18.151 24.0829 18.1828C24.0725 18.204 24.0519 18.2252 24.0312 18.2252C23.9794 18.2252 23.938 18.2358 23.8967 18.204C23.876 18.1934 23.8449 18.1722 23.8139 18.1722C23.8035 18.1722 23.7932 18.1722 23.7725 18.1828C23.7518 18.2252 23.7311 18.2781 23.7001 18.3311C23.6794 18.3735 23.6587 18.4159 23.6276 18.4583C23.6069 18.4795 23.5966 18.5113 23.5863 18.543C23.5656 18.596 23.5449 18.6596 23.5138 18.7126C23.4828 18.755 23.4517 18.7974 23.4207 18.8503C23.4 18.8927 23.3897 18.9457 23.3586 18.9775C23.3379 19.0093 23.3172 19.0411 23.3172 19.0728C23.3172 19.1364 23.2862 19.1788 23.2552 19.2212C23.2138 19.2742 23.1827 19.3483 23.1413 19.4119C23.1 19.4649 23.0586 19.5179 23.0275 19.5709C22.9965 19.6238 22.9654 19.6768 22.9344 19.7298C22.893 19.804 22.8413 19.8676 22.7999 19.9417C22.7689 19.9947 22.7275 20.0583 22.6757 20.1007C22.655 20.1113 22.6344 20.1325 22.624 20.1536C22.5723 20.2384 22.5205 20.3126 22.4585 20.3868C22.3964 20.4503 22.3446 20.5351 22.2826 20.5987C22.2308 20.6517 22.1791 20.7152 22.117 20.7682C22.086 20.7894 22.0653 20.8212 22.0446 20.853C21.9929 20.906 21.9515 20.9589 21.8894 21.0119C21.8273 21.0649 21.7756 21.1179 21.7238 21.1815C21.6928 21.2132 21.6618 21.245 21.6307 21.2662C21.5479 21.3192 21.4755 21.3828 21.4031 21.4464C21.2893 21.5523 21.1651 21.6477 21.0306 21.7325C21.0203 21.743 20.9996 21.7536 20.9892 21.7642C20.9375 21.8172 20.8754 21.849 20.8133 21.8914C20.7409 21.9444 20.6685 21.9868 20.5857 22.0397C20.4926 22.1033 20.4098 22.1669 20.3063 22.1987C20.2856 22.2093 20.2649 22.2199 20.2442 22.2305C20.1718 22.294 20.0787 22.3258 19.9959 22.3788C19.9132 22.4318 19.8304 22.4742 19.7373 22.506C19.7062 22.5166 19.6752 22.5272 19.6545 22.5483C19.6131 22.5801 19.5717 22.6013 19.5303 22.6119C19.4993 22.6225 19.4682 22.6437 19.4372 22.6649C19.4165 22.6861 19.3855 22.6967 19.3648 22.7073C19.2613 22.7391 19.1578 22.7815 19.0647 22.8344C19.0026 22.8662 18.9302 22.8874 18.8578 22.898C18.775 22.9086 18.7026 22.951 18.6198 22.9828C18.5991 22.9934 18.5888 23.004 18.5784 23.0146C18.475 23.0358 18.3715 23.0675 18.268 23.0887C18.237 23.0993 18.2059 23.0887 18.1749 23.0781C18.1232 23.0675 18.0611 23.0781 18.0197 23.1099C17.9576 23.1629 17.8955 23.1735 17.8231 23.1735C17.761 23.1735 17.6886 23.1947 17.6265 23.1841C17.6058 23.2159 17.5437 23.2477 17.4817 23.2689ZM24.2071 15.3642C24.1864 15.2795 24.1967 15.1947 24.2071 15.1099C24.2278 14.9828 24.2381 14.8556 24.2484 14.7285C24.2588 14.5272 24.2484 14.3364 24.2691 14.1351C24.2691 14.1033 24.2691 14.0609 24.2691 14.0291C24.2691 13.8808 24.2588 13.7325 24.2588 13.5841C24.2588 13.4464 24.2691 13.3192 24.2381 13.1815C24.2278 13.1497 24.2381 13.1179 24.2381 13.0861C24.2381 13.0225 24.2278 12.9483 24.2071 12.8848C24.1864 12.8318 24.1657 12.7788 24.176 12.7258C24.176 12.6517 24.1657 12.5669 24.1553 12.4927C24.1553 12.4821 24.145 12.4715 24.145 12.4609C24.1346 12.4291 24.0932 12.4185 24.0932 12.3868C24.0932 12.3444 24.0932 12.302 24.0932 12.249C24.0622 12.2278 24.0312 12.196 24.0105 12.1748C24.0208 12.1324 24.0208 12.0901 24.0829 12.0795C24.0932 12.0477 24.0622 12.0265 24.0519 11.9947C24.0519 11.9629 24.0519 11.9205 24.0519 11.8887C24.0001 11.8676 23.9484 11.857 23.8967 11.8358C23.876 11.8252 23.8656 11.8146 23.8553 11.804C23.8553 11.7616 23.8656 11.7298 23.8242 11.698C23.8035 11.6874 23.7932 11.6662 23.7725 11.6556C23.7725 11.6344 23.7828 11.6132 23.7828 11.5921C23.7518 11.5603 23.7311 11.5285 23.7104 11.5073C23.7208 11.4649 23.7311 11.4331 23.7311 11.4013C23.7104 11.3483 23.6587 11.3377 23.6276 11.3272C23.5966 11.306 23.5966 11.2742 23.6173 11.253C23.638 11.2318 23.6587 11.2212 23.6794 11.2C23.6794 11.147 23.669 11.1046 23.669 11.0517C23.6483 11.0305 23.6276 10.9987 23.6069 10.9669C23.5759 10.9139 23.5345 10.8821 23.4724 10.8821C23.4414 10.8821 23.4 10.8609 23.369 10.8503C23.3379 10.8397 23.3172 10.8185 23.3276 10.7762C23.3379 10.7232 23.3172 10.6808 23.2552 10.6596C23.2448 10.6596 23.2345 10.649 23.2241 10.649C23.1931 10.6278 23.1827 10.6066 23.1827 10.5748C23.1827 10.5642 23.1724 10.5536 23.162 10.5536C23.1413 10.5642 23.1206 10.5748 23.0896 10.5748C23.0689 10.5748 23.0586 10.5748 23.0379 10.5642C23.0068 10.5536 22.9758 10.5325 22.9448 10.5219C22.8723 10.5325 22.8102 10.5642 22.7378 10.5748C22.6964 10.5748 22.6757 10.6066 22.6757 10.649C22.6757 10.6596 22.6757 10.6596 22.6654 10.6702C22.624 10.6596 22.6033 10.6278 22.5619 10.6172C22.5516 10.6172 22.5412 10.6066 22.5309 10.596L22.5205 10.5854L22.5102 10.596C22.4895 10.6384 22.4688 10.649 22.4274 10.649C22.4067 10.649 22.3757 10.6384 22.355 10.6384C22.3033 10.6702 22.2515 10.6914 22.2101 10.7232C22.1584 10.7232 22.1274 10.7232 22.086 10.7126C22.0446 10.702 22.0032 10.6914 21.9618 10.6808C21.9308 10.6914 21.8997 10.6914 21.8687 10.702C21.8583 10.7338 21.848 10.755 21.8273 10.7868C21.817 10.7868 21.8066 10.7762 21.7963 10.7762C21.7756 10.7656 21.7652 10.7868 21.7549 10.7974C21.7238 10.8079 21.7031 10.7762 21.6721 10.7974C21.6514 10.8079 21.6411 10.7974 21.6204 10.7974C21.579 10.7868 21.5376 10.7762 21.4962 10.7868C21.4859 10.8079 21.4859 10.8185 21.4755 10.8397C21.4755 10.8397 21.4652 10.8503 21.4652 10.8397C21.4445 10.8079 21.4134 10.8185 21.3927 10.8397C21.341 10.8185 21.2789 10.8503 21.2168 10.8185C21.1962 10.8079 21.1651 10.7868 21.1341 10.7974C21.1237 10.8185 21.1134 10.8397 21.103 10.8609C21.072 10.8503 21.0513 10.8185 21.0203 10.8291C20.9892 10.8397 20.9685 10.7974 20.9478 10.7868C20.9064 10.7762 20.8651 10.7868 20.8444 10.8291C20.834 10.8397 20.8237 10.8503 20.8237 10.8609C20.7719 10.8291 20.7202 10.8079 20.6788 10.7762C20.6167 10.7974 20.5753 10.8291 20.565 10.8927C20.5133 10.8609 20.4512 10.8397 20.3995 10.8079C20.3788 10.8185 20.3477 10.8291 20.327 10.8291C20.3167 10.8291 20.3063 10.8397 20.296 10.8503C20.2856 10.8609 20.2753 10.8715 20.2649 10.8821C20.2132 10.8715 20.1718 10.8609 20.1201 10.8397C20.1097 10.8609 20.0994 10.8821 20.0787 10.9033C20.027 10.8927 19.9752 10.8927 19.9338 10.8927C19.9235 10.9139 19.9132 10.9351 19.9132 10.9457C19.8614 10.9245 19.7993 10.9033 19.7476 10.8927C19.7062 10.8821 19.6752 10.8927 19.6545 10.9351C19.6441 10.9457 19.6441 10.9563 19.6338 10.9563C19.5821 10.9563 19.5407 10.9563 19.4889 10.9563C19.4786 10.9563 19.4579 10.9775 19.4476 10.9881C19.4062 10.9775 19.3751 10.9457 19.3337 10.9457C19.313 10.9457 19.3027 10.9563 19.2923 10.9669C19.282 10.9881 19.282 10.9987 19.2717 11.0305C19.2406 10.9987 19.2199 10.9775 19.1785 10.9775C19.1475 10.9669 19.1061 10.9563 19.0751 10.9457C19.013 10.9669 18.9406 10.9881 18.8681 11.0093C18.8371 10.9987 18.7957 10.9987 18.7647 10.9881C18.7543 11.0093 18.7336 11.0305 18.7233 11.0517C18.6612 11.0517 18.6095 10.9987 18.5577 10.9775C18.5267 10.9881 18.506 10.9987 18.475 11.0199C18.4439 11.0411 18.4025 11.0199 18.3715 11.0199C18.3611 11.0199 18.3508 11.0199 18.3404 11.0305C18.3198 11.0411 18.2991 11.0517 18.2887 11.0834C18.2784 11.1046 18.2887 11.1364 18.268 11.147C18.2163 11.1258 18.1749 11.1152 18.1335 11.1046C18.1232 11.1152 18.1128 11.1258 18.1025 11.1364C18.0921 11.147 18.0818 11.1682 18.0818 11.1576C18.0404 11.1364 17.9887 11.1894 17.9473 11.147C17.9266 11.1258 17.8955 11.1258 17.8645 11.1152C17.8231 11.1576 17.761 11.1788 17.7093 11.1894C17.6679 11.1682 17.6162 11.147 17.5851 11.1364C17.5231 11.1576 17.461 11.1682 17.3989 11.1576C17.3679 11.147 17.3265 11.147 17.2954 11.1682C17.2851 11.1788 17.2747 11.2 17.2644 11.2106C17.2333 11.2106 17.192 11.2212 17.1609 11.2212C17.1195 11.2106 17.0781 11.1894 17.0368 11.1788C17.0161 11.2 16.9954 11.2106 16.985 11.2212C16.9022 11.2636 16.8712 11.2 16.8091 11.1788C16.7781 11.1894 16.7367 11.2212 16.6953 11.2212C16.6539 11.2318 16.6022 11.2212 16.5608 11.253C16.5505 11.2742 16.5401 11.2954 16.5298 11.3166C16.4987 11.3166 16.478 11.306 16.4573 11.306C16.4366 11.306 16.4056 11.306 16.3849 11.306C16.3642 11.306 16.3435 11.3272 16.3125 11.3166C16.2918 11.306 16.2711 11.3166 16.2401 11.3166C16.209 11.3166 16.1883 11.306 16.1573 11.3272C16.1262 11.3377 16.1055 11.3166 16.0745 11.306C16.0435 11.2954 16.0021 11.2954 15.971 11.2954C15.94 11.2954 15.8986 11.306 15.8676 11.2954C15.7951 11.2742 15.7331 11.2848 15.6606 11.2954C15.6503 11.3272 15.6296 11.3589 15.6193 11.3907C15.5882 11.4119 15.5468 11.4013 15.5261 11.4331C15.5054 11.4331 15.4847 11.4225 15.4537 11.4331C15.433 11.4437 15.4123 11.4543 15.3916 11.4331C15.3295 11.4013 15.2675 11.3907 15.2054 11.4225C15.164 11.4861 15.1743 11.4861 15.164 11.5709C15.1433 11.6768 15.1433 11.7828 15.0709 11.8675C15.0398 11.8993 15.0295 11.9417 15.0191 11.9841C15.0191 11.9947 15.0191 12.0053 15.0191 12.0159C15.0191 12.0265 15.0295 12.0371 15.0295 12.0477C15.0295 12.0689 15.0398 12.0795 15.0398 12.1007C14.9778 12.196 14.9053 12.2914 14.8639 12.3974C14.8639 12.4079 14.8639 12.4185 14.8743 12.4185C14.8846 12.4291 14.8846 12.4397 14.895 12.4397C14.926 12.4715 14.926 12.4927 14.9053 12.5351C14.8846 12.5775 14.8329 12.5987 14.8225 12.6623C14.8225 12.694 14.8329 12.7364 14.8432 12.7788C14.8019 12.8318 14.7605 12.8848 14.7191 12.9377C14.7087 12.9483 14.6984 12.9589 14.6984 12.9589C14.688 12.9695 14.6777 12.9695 14.6673 12.9801C14.6363 13.0649 14.5535 13.0861 14.4811 13.1179C14.4397 13.1391 14.388 13.1391 14.3466 13.1603C14.3259 13.1709 14.3052 13.1815 14.2949 13.2132C14.2845 13.2344 14.2845 13.2556 14.3052 13.2874C14.3466 13.3192 14.3983 13.3192 14.4397 13.3298C14.4708 13.3298 14.4811 13.351 14.4811 13.3934C14.4811 13.4252 14.4708 13.457 14.4811 13.4887C14.5018 13.5311 14.5121 13.5841 14.5018 13.6371C14.5018 13.6583 14.5121 13.6795 14.5225 13.7113C14.5328 13.7324 14.5432 13.7536 14.5535 13.7748C14.5328 13.8808 14.5121 13.9868 14.4604 14.0715C14.4501 14.0821 14.4501 14.0927 14.4501 14.1033C14.4087 14.2834 14.3363 14.4636 14.3052 14.6543C14.2949 14.7179 14.2742 14.7709 14.2328 14.8132C14.2017 14.845 14.1707 14.8662 14.1604 14.9192C14.2017 15.057 14.2017 15.0676 14.119 15.1735C14.1086 15.1841 14.0983 15.1947 14.0983 15.2053C14.0879 15.2159 14.0879 15.2265 14.0879 15.2477C14.0879 15.2795 14.0879 15.3113 14.0879 15.3536C14.0672 15.3854 14.0465 15.4278 14.0155 15.4702C14.0259 15.5762 13.9948 15.6715 13.9431 15.7775C13.912 15.8305 13.9017 15.894 13.881 15.947C13.8706 15.9788 13.8603 16.0212 13.8603 16.053C13.8189 16.0954 13.7775 16.1377 13.7465 16.1801C13.7154 16.2225 13.6948 16.2543 13.6948 16.3179C13.7154 16.3497 13.7361 16.3815 13.7465 16.4132C13.7258 16.5086 13.7051 16.5934 13.6637 16.6781C13.643 16.6993 13.643 16.7311 13.6327 16.7629C13.612 16.8371 13.5913 16.9219 13.5809 16.996C13.5602 17.0808 13.5292 17.155 13.4775 17.2291C13.4464 17.2609 13.4257 17.2927 13.3947 17.3351C13.3844 17.3457 13.3844 17.3669 13.374 17.3775C13.3947 17.4093 13.405 17.4305 13.4154 17.4517C13.3947 17.5258 13.374 17.5894 13.3637 17.653C13.3533 17.7272 13.3223 17.7907 13.2809 17.8543C13.2705 17.8755 13.2602 17.8967 13.2498 17.9179C13.2498 17.9497 13.2498 17.9815 13.2498 18.0132C13.2395 18.045 13.2291 18.0874 13.2188 18.1192C13.2085 18.1616 13.1878 18.2146 13.1774 18.257C13.1464 18.3947 13.0946 18.5219 13.0326 18.6596C13.0429 18.7338 13.0222 18.8079 13.0015 18.8927C12.9705 19.0517 12.9187 19.1894 12.8256 19.3166C12.8153 19.3377 12.8049 19.3589 12.7946 19.3695C12.8049 19.4119 12.8153 19.4437 12.8153 19.4755C12.8153 19.5285 12.8049 19.5709 12.7842 19.6238C12.7739 19.6556 12.7532 19.698 12.7532 19.7298C12.7222 19.9523 12.6601 20.1748 12.6083 20.3974C12.6083 20.4185 12.598 20.4503 12.5877 20.4715C12.567 20.5351 12.5463 20.5987 12.5359 20.6623C12.5256 20.7258 12.4945 20.7894 12.4842 20.853C12.4635 20.9166 12.4635 20.9801 12.4428 21.0543C12.4428 21.0649 12.4324 21.0755 12.4324 21.0861C12.4118 21.1497 12.3807 21.2132 12.3704 21.2768C12.3704 21.3404 12.329 21.404 12.329 21.4781C12.329 21.4993 12.329 21.5205 12.3186 21.5311C12.2772 21.5947 12.2669 21.6689 12.2669 21.743C12.2669 21.7748 12.2462 21.796 12.2359 21.8278C12.2255 21.849 12.2255 21.8596 12.2255 21.8808C12.2255 21.902 12.2359 21.9338 12.2566 21.9444C12.2876 21.955 12.3186 21.9656 12.3497 21.9974C12.3704 22.0185 12.4014 22.0291 12.4324 22.0291C12.4635 22.0291 12.4945 22.0291 12.5256 22.0291C12.567 22.0397 12.6083 22.0503 12.6394 22.0821C12.6911 22.1457 12.7635 22.1457 12.836 22.1457C12.8877 22.1457 12.9291 22.1563 12.9705 22.1775C13.0015 22.1881 13.0222 22.2093 13.0429 22.2199C13.1878 22.1987 13.2085 22.2093 13.3223 22.3046C13.374 22.3046 13.4257 22.3364 13.4775 22.3152C13.5189 22.294 13.5499 22.3258 13.5809 22.3364C13.6016 22.3258 13.612 22.3046 13.6223 22.3152C13.6534 22.3258 13.6948 22.3152 13.7258 22.3258C13.7568 22.3258 13.7879 22.347 13.8086 22.347C13.85 22.347 13.8603 22.3894 13.9017 22.4C13.9224 22.4 13.9431 22.4106 13.9534 22.4C14.0052 22.3682 14.0569 22.3788 14.1086 22.3682C14.1293 22.3682 14.1397 22.3576 14.15 22.347C14.1914 22.2728 14.2017 22.1881 14.2431 22.1245C14.2535 22.1033 14.2638 22.0821 14.2638 22.0503C14.2638 21.9974 14.2742 21.9444 14.3156 21.902C14.3363 21.8808 14.3363 21.8596 14.3363 21.8278C14.3363 21.7642 14.3569 21.7113 14.419 21.6689C14.419 21.6689 14.4294 21.6583 14.4294 21.6477C14.4294 21.5947 14.4294 21.5417 14.4397 21.4887C14.4604 21.4675 14.4811 21.457 14.4811 21.4252C14.4811 21.3828 14.4915 21.3404 14.5018 21.298C14.5121 21.245 14.5121 21.2026 14.5121 21.1497C14.5535 21.0861 14.5949 21.0119 14.5846 20.9272C14.6053 20.8212 14.626 20.7152 14.6673 20.6093L14.6777 20.5987C14.6984 20.5881 14.7191 20.5881 14.7398 20.5775C14.7501 20.5245 14.7294 20.4609 14.7398 20.4079C14.7501 20.3868 14.7294 20.355 14.6984 20.355C14.657 20.3444 14.626 20.3126 14.6053 20.2702C14.5846 20.2066 14.5432 20.1324 14.5328 20.0689C14.4915 20.0265 14.4915 19.9841 14.4915 19.9311C14.4811 19.8146 14.5018 19.7086 14.5432 19.6026C14.5639 19.5497 14.5742 19.4967 14.5535 19.4437C14.5535 19.4331 14.5535 19.4225 14.5535 19.4119C14.5535 19.3801 14.5535 19.3483 14.5742 19.3272C14.6053 19.3166 14.6363 19.2954 14.657 19.2954C14.688 19.2848 14.7191 19.2742 14.7398 19.2848C14.7915 19.2954 14.8329 19.2742 14.8743 19.253C14.926 19.2318 14.9778 19.2212 15.0295 19.2212C15.0502 19.2212 15.0812 19.2212 15.1019 19.2C15.1019 19.1682 15.1123 19.147 15.1123 19.1152C15.1433 19.1046 15.164 19.0834 15.195 19.0728C15.2054 19.0517 15.2054 19.0199 15.195 18.9987C15.1743 18.9351 15.195 18.8821 15.2571 18.8397C15.2571 18.8397 15.2675 18.8291 15.2675 18.8185C15.2675 18.7868 15.2675 18.7444 15.2571 18.6914C15.2778 18.649 15.2882 18.596 15.3088 18.543C15.3192 18.5325 15.3295 18.5219 15.3399 18.5219C15.3813 18.5113 15.402 18.4795 15.3916 18.4371C15.3916 18.3841 15.3813 18.3417 15.3709 18.2887C15.402 18.2146 15.433 18.151 15.4537 18.0768C15.4537 18.0662 15.4744 18.0556 15.4951 18.0344C15.5054 17.9709 15.5158 17.9073 15.5261 17.8437C15.5261 17.8119 15.5365 17.7801 15.5468 17.7589C15.5572 17.7272 15.5779 17.706 15.5986 17.6848C15.6193 17.6636 15.6503 17.6636 15.6606 17.6212C15.6606 17.5788 15.6606 17.5364 15.6606 17.494C15.6606 17.4411 15.6813 17.3987 15.7227 17.3669C15.7331 17.3563 15.7434 17.3457 15.7538 17.3351C15.7745 17.2609 15.7538 17.1974 15.7848 17.1338C15.7951 17.1338 15.8055 17.1232 15.8158 17.1232C15.8262 16.9854 15.8158 16.9854 15.8779 16.8583C15.8883 16.8265 15.909 16.7947 15.8986 16.7523C15.909 16.6781 15.9193 16.5934 15.9297 16.5192C15.9193 16.4662 15.909 16.4238 15.8883 16.3815C15.8883 16.3391 15.909 16.3073 15.8986 16.2649C15.8779 16.2437 15.8676 16.2119 15.8572 16.1907C15.8779 16 15.9193 15.8199 15.971 15.6397C15.9917 15.555 16.0228 15.4596 16.0435 15.3748C16.0849 15.2371 16.1262 15.0887 16.1573 14.951C16.178 14.8768 16.1883 14.7921 16.209 14.7179C16.2194 14.6861 16.178 14.6543 16.1573 14.6543C16.0952 14.6543 16.0331 14.6649 15.9814 14.6649C15.94 14.7285 15.8676 14.7285 15.8158 14.7603C15.7641 14.7921 15.702 14.8026 15.6399 14.7921C15.6192 14.7921 15.5986 14.8026 15.5779 14.8132C15.5675 14.8238 15.5468 14.8132 15.5261 14.8132C15.5158 14.8132 15.5054 14.8026 15.4951 14.7921C15.4847 14.7921 15.4744 14.7815 15.4641 14.7815C15.3916 14.8132 15.3192 14.7815 15.2571 14.7603C15.2468 14.7603 15.2364 14.7709 15.2261 14.7709C15.195 14.7815 15.1536 14.7709 15.1433 14.7497L15.133 14.7391C15.1019 14.6755 15.0709 14.6119 15.0605 14.5377C15.0605 14.506 15.0295 14.506 15.0191 14.4848C15.0088 14.4636 15.0088 14.4318 15.0088 14.4106C14.9984 14.2834 15.0088 14.1669 15.0605 14.0503C15.0812 13.9974 15.0916 13.9444 15.0812 13.8914C15.0709 13.8596 15.0709 13.8172 15.0916 13.7748C15.2261 13.7113 15.3502 13.6371 15.4951 13.6053C15.5158 13.6053 15.5261 13.5947 15.5468 13.5841C15.6296 13.5417 15.7124 13.4993 15.7951 13.4781C15.8469 13.4676 15.8986 13.457 15.9503 13.4252C16.0435 13.3722 16.1469 13.3404 16.2607 13.3722C16.2814 13.3722 16.2918 13.3722 16.3228 13.3616C16.3539 13.3086 16.4056 13.2874 16.4677 13.2768C16.4987 13.2662 16.5401 13.2662 16.5712 13.2556C16.5918 13.2556 16.6022 13.2344 16.6229 13.2238C16.6436 13.0755 16.6332 12.9272 16.6746 12.7894C16.7264 12.747 16.7677 12.694 16.8298 12.6728C16.9126 12.6411 16.9643 12.5775 16.985 12.4927C17.0368 12.3338 17.0988 12.1748 17.192 12.0159C17.223 11.9841 17.2644 11.9523 17.3058 11.9205C17.3472 11.9205 17.3885 11.9205 17.4299 11.9205C17.5024 11.9205 17.5748 11.9417 17.6265 11.9947C17.6472 12.0159 17.6783 12.0265 17.6989 12.0477C17.7403 12.0901 17.7921 12.1219 17.8438 12.143C17.8542 12.1642 17.8645 12.1748 17.8748 12.196C17.9059 12.249 17.9162 12.3126 17.8852 12.3762C17.8748 12.3868 17.8852 12.4079 17.8852 12.4291C17.9059 12.5245 17.9059 12.6199 17.8955 12.7258C17.8955 12.7576 17.8541 12.7894 17.8645 12.8318C17.8748 12.8636 17.8748 12.906 17.8748 12.9377C17.8748 12.9589 17.8748 12.9801 17.8748 12.9907C17.8438 13.0437 17.8541 13.1285 17.8128 13.1815C17.8024 13.1921 17.8024 13.2238 17.8231 13.245C17.8335 13.2344 17.8541 13.2238 17.8645 13.2238C17.8852 13.2238 17.9162 13.2344 17.9369 13.2344C17.9576 13.2238 17.9887 13.2026 18.0093 13.1921C18.0404 13.2026 18.0611 13.2238 18.0921 13.2132C18.1232 13.2027 18.1542 13.2026 18.1852 13.2026C18.2163 13.2026 18.2577 13.2026 18.2887 13.1921C18.3818 13.1603 18.475 13.1603 18.5681 13.1391C18.5991 13.1497 18.6302 13.1497 18.6508 13.1603C18.7026 13.1285 18.7543 13.1179 18.8061 13.1285C18.8474 13.1391 18.8785 13.1179 18.9199 13.0967C18.9819 13.1179 19.0544 13.1073 19.1268 13.0967C19.1785 13.0861 19.2303 13.0861 19.2923 13.0861C19.3441 13.0861 19.3855 13.0755 19.4372 13.1073C19.4786 13.1285 19.52 13.1179 19.5614 13.1073C19.6028 13.1285 19.6441 13.1497 19.6855 13.1709C19.7269 13.1709 19.758 13.1603 19.789 13.1709C19.82 13.1709 19.8614 13.1815 19.8925 13.1815C19.9649 13.1709 20.0373 13.2027 20.0787 13.2662C20.089 13.2768 20.0994 13.2768 20.1097 13.2874C20.1201 13.2874 20.1408 13.2768 20.1615 13.2768C20.1822 13.2768 20.1925 13.2662 20.2132 13.2662C20.2546 13.2874 20.296 13.3192 20.3477 13.3298C20.3995 13.3404 20.4408 13.351 20.4822 13.3828C20.5029 13.404 20.534 13.404 20.565 13.4146C20.6374 13.4252 20.6892 13.457 20.7305 13.5205C20.7409 13.5311 20.7512 13.5523 20.7616 13.5629C20.7926 13.5629 20.8133 13.5735 20.8237 13.5735C20.8651 13.5735 20.8961 13.5841 20.9271 13.6053C20.9892 13.6689 21.0513 13.7113 21.1341 13.7536C21.1548 13.7642 21.1755 13.7854 21.1858 13.796C21.2375 13.8596 21.2893 13.9126 21.3514 13.9656C21.3824 13.9973 21.4031 14.0291 21.4341 14.0609C21.4652 14.1139 21.5066 14.1563 21.5376 14.2093C21.5893 14.2834 21.6307 14.3682 21.6721 14.4424C21.7549 14.6013 21.8273 14.7603 21.879 14.9298C21.9204 15.0781 21.9722 15.2265 21.9825 15.3748C21.9929 15.4596 21.9929 15.5338 22.0032 15.6079C22.0032 15.6397 22.0135 15.6715 22.0135 15.7033C22.0135 15.7669 22.0135 15.8411 22.0032 15.9046C21.9929 15.9788 21.9929 16.053 22.0032 16.1272C22.0135 16.1907 22.0239 16.2649 21.9929 16.3285C21.9825 16.3497 21.9929 16.3815 21.9825 16.4026C21.9825 16.445 21.9722 16.4874 21.9722 16.5298C21.9515 16.5616 21.9308 16.5828 21.9204 16.604C21.8997 16.6358 21.8894 16.6676 21.879 16.6993C21.8894 16.7417 21.8997 16.7735 21.8997 16.8159C21.9101 16.8689 21.8687 16.9219 21.817 16.9113C21.7549 16.9113 21.7135 16.9325 21.6721 16.9748C21.6618 17.0384 21.6618 17.1126 21.6514 17.1762C21.6411 17.2185 21.6411 17.2609 21.6514 17.3033C21.6618 17.3351 21.6618 17.3669 21.6514 17.3987C21.6204 17.5046 21.579 17.6106 21.4548 17.6424L21.4445 17.653C21.4445 17.6954 21.4341 17.7272 21.4341 17.7695C21.4134 17.7801 21.3927 17.8013 21.372 17.8013C21.3514 17.8119 21.341 17.8013 21.3203 17.8119C21.2893 17.8225 21.2686 17.8437 21.2686 17.8755C21.2686 17.8967 21.2686 17.9073 21.2686 17.9285C21.2582 18.0132 21.2272 18.0556 21.1341 18.0768C21.0616 18.098 21.0513 18.098 21.0513 18.1934C21.0513 18.204 21.0513 18.2146 21.041 18.2358C21.0203 18.2676 20.9892 18.2993 20.9375 18.2993C20.8754 18.2993 20.834 18.3311 20.834 18.4053C20.834 18.4159 20.8237 18.4265 20.8133 18.4371C20.7823 18.4371 20.7616 18.4371 20.7409 18.4371C20.6892 18.4583 20.6478 18.4901 20.6167 18.5113C20.6167 18.543 20.6167 18.5748 20.6271 18.6066C20.596 18.649 20.5547 18.6914 20.5029 18.7338C20.3995 18.8185 20.3063 18.9139 20.1925 18.9775C20.1718 18.9775 20.1408 18.9669 20.1201 18.9775C20.0891 18.9881 20.058 19.0093 20.0477 19.0517C20.0373 19.0834 20.0373 19.1152 20.0063 19.1258C19.9442 19.1576 19.8925 19.2212 19.8097 19.2106C19.7993 19.2106 19.7786 19.2318 19.7683 19.2424C19.7476 19.306 19.7062 19.3377 19.6648 19.3589C19.6338 19.3695 19.6131 19.3801 19.5821 19.3907C19.551 19.4013 19.52 19.4013 19.4993 19.4013C19.4372 19.4649 19.4372 19.4649 19.3648 19.4755C19.3027 19.5603 19.3027 19.5603 19.2096 19.5603C19.1785 19.5815 19.1371 19.5921 19.1165 19.6238C19.0751 19.6768 19.0337 19.7086 18.9716 19.7298C18.7854 19.804 18.6095 19.8781 18.4129 19.9311C18.3715 19.9417 18.3198 19.9629 18.2784 19.9735C18.2266 19.9841 18.1749 20.0053 18.1232 20.0159C18.0818 20.0265 18.0404 20.0689 17.9887 20.0689C17.9369 20.1007 17.8852 20.1007 17.8335 20.1113C17.7921 20.1536 17.73 20.143 17.6783 20.1536C17.6576 20.1642 17.6369 20.1748 17.6162 20.1854C17.5955 20.1854 17.5748 20.1748 17.5437 20.1748C17.5231 20.196 17.5024 20.2172 17.4817 20.2172C17.3989 20.2384 17.3161 20.2808 17.223 20.249C17.2023 20.2384 17.1816 20.2702 17.1609 20.2702C17.1299 20.2702 17.1092 20.249 17.0781 20.249C17.0574 20.249 17.0264 20.249 17.0057 20.2596C16.9747 20.2702 16.954 20.2914 16.9229 20.302C16.8919 20.3126 16.8712 20.3232 16.8402 20.3338C16.7884 20.3126 16.7367 20.3338 16.685 20.3656C16.6022 20.4079 16.5298 20.4185 16.447 20.3868C16.4263 20.3974 16.4056 20.4079 16.3849 20.4185C16.3539 20.4291 16.3228 20.4185 16.2918 20.4185C16.2608 20.4185 16.2194 20.4397 16.1883 20.4291C16.1366 20.4291 16.0849 20.4185 16.0331 20.4079C16.0124 20.4079 15.9814 20.3974 15.9607 20.4079C15.8986 20.4291 15.8262 20.4185 15.7641 20.4291C15.7331 20.4503 15.7227 20.4821 15.7331 20.5033C15.7538 20.5457 15.7538 20.5987 15.7434 20.6411C15.7434 20.6623 15.7434 20.694 15.7331 20.7046C15.702 20.7364 15.6813 20.7576 15.6606 20.7788C15.6606 20.8106 15.6606 20.8318 15.6606 20.8424C15.6193 20.8848 15.5779 20.9272 15.5468 20.9695C15.5365 20.9801 15.5468 20.9907 15.5468 21.0013C15.5572 21.0331 15.6089 21.0437 15.5986 21.0861C15.5986 21.0967 15.5986 21.0967 15.5882 21.1073C15.5365 21.1391 15.4951 21.1815 15.4537 21.2238C15.4123 21.2556 15.4123 21.3086 15.4537 21.351C15.4744 21.3828 15.5054 21.404 15.5158 21.4464C15.5054 21.457 15.4847 21.4676 15.4744 21.4676C15.433 21.4887 15.4227 21.5205 15.433 21.5523C15.4434 21.5735 15.4537 21.5947 15.4641 21.6159C15.4744 21.6689 15.4641 21.7219 15.4123 21.7642C15.402 21.7748 15.3916 21.7854 15.3813 21.8066C15.3916 21.8278 15.3916 21.849 15.3916 21.8596C15.402 21.8914 15.3916 21.9232 15.3606 21.9444C15.3502 21.955 15.3295 21.9656 15.3192 21.9762C15.2882 21.9974 15.2778 22.0291 15.2985 22.0715C15.3192 22.1139 15.3088 22.1139 15.2571 22.1563C15.2468 22.1669 15.2468 22.1775 15.2364 22.1881C15.2468 22.2093 15.2571 22.2305 15.2675 22.2517C15.2571 22.2834 15.2261 22.294 15.2054 22.3152C15.2157 22.3682 15.2261 22.4318 15.2261 22.4848C15.2778 22.5166 15.3399 22.506 15.3813 22.5272C15.433 22.5483 15.4847 22.5801 15.5572 22.5801C15.5675 22.5801 15.5986 22.5589 15.6193 22.5695C15.671 22.5801 15.7227 22.5695 15.7745 22.5801C15.8055 22.5801 15.8262 22.6013 15.8572 22.5801C15.8883 22.5695 15.909 22.6013 15.94 22.6013C15.9917 22.5907 16.0435 22.5801 16.0952 22.6013C16.1159 22.6119 16.1469 22.6013 16.1676 22.5907C16.2297 22.5695 16.3021 22.5695 16.3642 22.5801C16.3953 22.5801 16.4263 22.5907 16.447 22.5801C16.4677 22.5695 16.4987 22.5695 16.5194 22.5695C16.6332 22.5589 16.7574 22.5589 16.8712 22.5272C16.9436 22.5166 17.0264 22.506 17.0988 22.4848C17.1299 22.4742 17.1609 22.4742 17.192 22.4742C17.223 22.4742 17.2644 22.4742 17.2954 22.4636C17.3575 22.453 17.4092 22.4318 17.4713 22.453C17.4817 22.453 17.492 22.453 17.5024 22.4424C17.5334 22.4318 17.5541 22.4212 17.5851 22.4212C17.6369 22.4318 17.6783 22.4212 17.7196 22.3894C17.7403 22.3788 17.761 22.3682 17.7921 22.3682C17.8231 22.3682 17.8645 22.3682 17.8955 22.347C17.9783 22.3046 18.0714 22.294 18.1542 22.2728C18.1956 22.2834 18.2266 22.2834 18.268 22.294C18.3818 22.2305 18.4956 22.1881 18.6198 22.1563C18.6405 22.1457 18.6612 22.1351 18.6922 22.1351C18.775 22.1351 18.8474 22.1033 18.9095 22.0715C18.9613 22.0503 19.013 22.0185 19.0751 22.0079C19.1165 22.0079 19.1475 21.9974 19.1785 21.9762C19.2613 21.955 19.3337 21.8808 19.4269 21.8914C19.4889 21.8702 19.5303 21.8172 19.6028 21.8172C19.6131 21.8172 19.6338 21.8066 19.6441 21.7854C19.6959 21.7325 19.758 21.7113 19.8097 21.6795C19.8407 21.6689 19.8614 21.6583 19.8925 21.6371C19.9545 21.5947 20.0166 21.5629 20.089 21.5417C20.1097 21.5311 20.1201 21.5311 20.1408 21.5205C20.2236 21.4464 20.3167 21.3934 20.4098 21.3404C20.4512 21.3192 20.4822 21.298 20.5133 21.2768C20.596 21.2238 20.6788 21.1497 20.7719 21.1285C20.8133 21.0861 20.8444 21.0331 20.8961 21.0225C20.9064 21.0225 20.9168 21.0119 20.9271 21.0013C20.9892 20.9272 21.0823 20.8848 21.1548 20.8318C21.1962 20.8 21.2479 20.7788 21.2789 20.7364C21.3307 20.6728 21.3824 20.6199 21.4548 20.5881C21.4755 20.5775 21.4859 20.5563 21.5066 20.5457C21.5686 20.5139 21.5893 20.4397 21.6411 20.3974C21.7445 20.3126 21.8273 20.2066 21.9204 20.1113C21.9515 20.0689 21.9825 20.0265 22.0239 19.9841C22.086 19.9311 22.1377 19.8781 22.1791 19.804C22.1894 19.7934 22.1998 19.7828 22.2101 19.7616C22.2722 19.6874 22.355 19.6238 22.386 19.5285C22.386 19.5179 22.3964 19.5073 22.4067 19.4967C22.4585 19.4331 22.5102 19.3589 22.5619 19.2954C22.6447 19.1788 22.7378 19.0728 22.7896 18.9457C22.7999 18.9245 22.8102 18.9033 22.8309 18.8821C22.862 18.8503 22.8827 18.7974 22.9034 18.755C22.9241 18.702 22.9448 18.649 22.9965 18.6172C23.0275 18.5854 23.0482 18.5536 23.0689 18.5113C23.131 18.3735 23.1827 18.2252 23.2552 18.0874C23.2862 18.0238 23.3069 17.9603 23.3379 17.9073C23.3897 17.7907 23.4414 17.6742 23.4931 17.5576C23.5242 17.494 23.5552 17.4411 23.5759 17.3775C23.5966 17.3139 23.6276 17.2503 23.6483 17.1868C23.7208 16.9748 23.7932 16.7735 23.8553 16.5616C23.8863 16.445 23.9277 16.3285 23.9484 16.2119C23.9691 16.0954 24.0001 15.9788 24.0208 15.8728C24.0415 15.7881 24.0622 15.6927 24.0725 15.5974C24.145 15.555 24.1657 15.4596 24.2071 15.3642ZM10.4976 10.543C10.5597 10.5325 10.6011 10.5219 10.6528 10.5113C10.6838 10.4583 10.7356 10.4901 10.777 10.4795C10.8287 10.4689 10.8701 10.4583 10.9115 10.4371C10.9425 10.4265 10.9632 10.4159 10.9943 10.4159C11.0253 10.4159 11.0563 10.4159 11.0874 10.4053C11.1598 10.3841 11.2322 10.3841 11.3047 10.4053C11.3564 10.4265 11.4081 10.4159 11.4599 10.4053C11.4805 10.3947 11.4909 10.3629 11.5116 10.3629C11.5737 10.3417 11.6357 10.3205 11.6978 10.3099C11.7703 10.2993 11.8427 10.2887 11.9151 10.2887C12.0186 10.2464 12.1427 10.2464 12.2462 10.2252C12.2772 10.2146 12.3186 10.2146 12.3497 10.204C12.4325 10.204 12.5049 10.1934 12.5773 10.1722C12.6808 10.151 12.7739 10.1404 12.8774 10.1298C12.9187 10.1298 12.9601 10.1298 13.0015 10.1298C13.0429 10.1298 13.0843 10.1192 13.1257 10.1086C13.1671 10.1192 13.1981 10.1298 13.2292 10.1404C13.2395 10.1404 13.2498 10.1404 13.2705 10.1404C13.2809 10.1298 13.2912 10.1192 13.3119 10.098C13.374 10.1086 13.4568 10.0874 13.5292 10.0662C13.5706 10.0556 13.612 10.045 13.6534 10.045C13.7465 10.0344 13.8293 10.0238 13.9224 10.0132C13.9534 9.99205 13.9638 9.97086 13.9741 9.93907C14.0052 9.88609 13.9948 9.83311 14.0052 9.78013C14.0259 9.72715 14.0672 9.68477 14.0672 9.63179C14.0672 9.6106 14.0672 9.57881 14.0776 9.55762C14.0983 9.50464 14.0983 9.45166 14.1397 9.40927C14.15 9.40927 14.1604 9.39868 14.1707 9.39868C14.2017 9.38808 14.2121 9.37748 14.2121 9.3457C14.2121 9.3351 14.2121 9.3351 14.2121 9.3245C14.1914 9.22914 14.2121 9.14437 14.2431 9.0596C14.2638 9.01722 14.2742 8.98543 14.2949 8.94305C14.3259 8.87947 14.3466 8.82649 14.3673 8.75232C14.3776 8.70993 14.3983 8.65695 14.419 8.61457C14.4397 8.5404 14.4708 8.47682 14.4915 8.40265C14.5328 8.29669 14.5639 8.18013 14.6053 8.07417C14.6156 8.05298 14.626 8.03179 14.6363 8.0106C14.6673 7.97881 14.6777 7.93642 14.688 7.89404C14.6984 7.84106 14.7087 7.79868 14.7087 7.7457C14.7087 7.71391 14.7087 7.68212 14.7294 7.66093C14.7605 7.59735 14.7812 7.52318 14.7915 7.44901C14.8019 7.40662 14.8122 7.36424 14.8225 7.32185C14.8639 7.22649 14.8846 7.12053 14.9053 7.02517C14.9364 6.89801 14.9674 6.77086 14.9984 6.6543C15.0398 6.50596 15.0605 6.35762 15.1123 6.20927C15.1226 6.17748 15.1226 6.1351 15.133 6.10331C15.1743 6.03974 15.1847 5.96556 15.195 5.89139C15.195 5.8702 15.2054 5.83841 15.2157 5.81722C15.2571 5.73245 15.2675 5.62649 15.2985 5.54172C15.2882 5.50993 15.2882 5.47815 15.2571 5.45695C15.2054 5.50993 15.195 5.50993 15.1433 5.49934C15.1226 5.49934 15.1019 5.48874 15.0709 5.48874C15.0605 5.52053 15.0502 5.54172 15.0398 5.57351C14.9881 5.6053 14.926 5.58411 14.8639 5.5947C14.8639 5.6053 14.8536 5.61589 14.8536 5.62649C14.8536 5.65828 14.8432 5.67947 14.8122 5.67947C14.7191 5.69007 14.6467 5.75364 14.5535 5.73245C14.5328 5.73245 14.5018 5.73245 14.4811 5.74305C14.4397 5.76424 14.3983 5.75364 14.3569 5.77483C14.3363 5.79603 14.3156 5.81722 14.3052 5.83841C14.2742 5.84901 14.2431 5.84901 14.2121 5.8596C14.2017 5.8808 14.1811 5.90199 14.1604 5.92318C14.15 5.93377 14.1086 5.93378 14.0983 5.91258C14.0879 5.89139 14.0776 5.8702 14.0672 5.84901C14.0155 5.84901 13.9948 5.84901 13.9948 5.88079C13.9741 5.95497 13.9327 5.99735 13.8603 6.00795C13.8396 5.99735 13.8086 5.99735 13.7879 5.98675C13.7775 5.99735 13.7775 5.99735 13.7775 6.00795C13.7672 6.03973 13.7672 6.07152 13.7568 6.09272C13.7051 6.1245 13.6637 6.15629 13.6223 6.17748C13.5913 6.19868 13.5499 6.20927 13.5085 6.21987C13.4361 6.19868 13.3947 6.24106 13.3637 6.29404C13.3533 6.31523 13.3326 6.33642 13.3119 6.34702C13.2705 6.36821 13.2395 6.4106 13.1981 6.43179C13.136 6.47417 13.0739 6.51656 13.0119 6.52715C12.9498 6.53775 12.9084 6.55894 12.867 6.59073C12.8567 6.60132 12.8256 6.59073 12.8256 6.56954C12.8153 6.54834 12.8049 6.52715 12.7946 6.50596C12.7222 6.54834 12.7429 6.63311 12.7325 6.69669C12.7015 6.71788 12.6601 6.73907 12.629 6.77086C12.5773 6.83444 12.5152 6.87682 12.4428 6.90861C12.4118 6.9192 12.3807 6.95099 12.36 6.97219C12.3497 6.98278 12.329 6.99338 12.3186 6.99338C12.2979 6.99338 12.2669 7.00397 12.2462 7.02517C12.2255 7.08874 12.1738 7.10993 12.1117 7.12053C12.0807 7.15232 12.06 7.17351 12.0393 7.2053C12.0082 7.1947 11.9772 7.18411 11.9462 7.17351C11.9358 7.18411 11.9151 7.1947 11.9151 7.21589C11.9048 7.24768 11.9151 7.29007 11.8841 7.33245C11.8116 7.35364 11.7392 7.41722 11.6771 7.4808C11.6461 7.51258 11.6047 7.54437 11.5633 7.56556C11.4909 7.59735 11.4392 7.63973 11.3978 7.70331C11.3564 7.7457 11.315 7.79868 11.2633 7.81987C11.2426 7.83046 11.2219 7.85166 11.2115 7.87285C11.1805 7.91523 11.1391 7.93642 11.0977 7.95762C11.0253 7.97881 10.9736 8.03179 10.9322 8.09536C10.9115 8.13775 10.8701 8.16954 10.8287 8.19073C10.7977 8.21192 10.7666 8.22252 10.7459 8.23311C10.7045 8.28609 10.6735 8.32848 10.6321 8.37086C10.6114 8.40265 10.57 8.38146 10.5493 8.40265C10.5286 8.43444 10.508 8.47682 10.4873 8.50861C10.4562 8.58278 10.3941 8.62517 10.3321 8.65695C10.3114 8.66755 10.2907 8.67815 10.27 8.67815C10.2596 8.69934 10.2493 8.72053 10.2389 8.73113C10.1976 8.84768 10.0941 8.92185 10.0113 9.00662C9.94923 9.01722 9.91819 9.0808 9.8768 9.12318C9.82507 9.17616 9.79403 9.23974 9.75264 9.30331C9.74229 9.31391 9.73195 9.3351 9.7216 9.3457C9.66987 9.37748 9.61813 9.37748 9.5664 9.43046C9.58709 9.49404 9.54571 9.54702 9.50432 9.5894C9.46293 9.64238 9.42154 9.70596 9.38016 9.76954C9.36981 9.78013 9.36981 9.79073 9.35946 9.79073C9.34912 9.80132 9.32842 9.81192 9.30773 9.81192C9.28704 9.81192 9.27669 9.79073 9.26634 9.78013L9.256 9.76954C9.24565 9.75894 9.21461 9.78013 9.21461 9.79073C9.20426 9.8755 9.18357 9.96027 9.17322 10.045C9.14218 10.098 9.11114 10.151 9.0801 10.204C8.98698 10.3311 8.89386 10.4583 8.80074 10.5854C8.79039 10.596 8.78004 10.6066 8.75935 10.6172C8.749 10.6278 8.73866 10.6172 8.72831 10.6278C8.70762 10.6066 8.70762 10.5854 8.69727 10.5642C8.69727 10.5536 8.68692 10.543 8.67658 10.543C8.66623 10.5325 8.64554 10.5536 8.63519 10.5748C8.62484 10.6066 8.6145 10.649 8.62484 10.6808C8.64554 10.8079 8.6145 10.9245 8.53172 11.0305C8.49034 11.0834 8.46964 11.1364 8.42825 11.1894C8.39721 11.2424 8.36617 11.306 8.34548 11.3695C8.2834 11.5603 8.22132 11.751 8.1282 11.9311C8.08681 12.0159 8.05577 12.1007 8.02473 12.1854C8.01438 12.3126 7.94196 12.4185 7.91092 12.5351C7.90057 12.5669 7.87988 12.5987 7.83849 12.6093C7.8178 12.5987 7.7971 12.5881 7.77641 12.5775C7.77641 12.5775 7.76606 12.5775 7.75572 12.5775C7.69363 12.6199 7.6419 12.6834 7.62121 12.7576C7.62121 12.8318 7.63155 12.9166 7.62121 12.9801C7.61086 13.0331 7.62121 13.0861 7.6419 13.1391C7.63156 13.2238 7.60051 13.3086 7.60051 13.3934C7.62121 13.4252 7.6419 13.457 7.65225 13.4887C7.6419 13.5523 7.6419 13.6053 7.63155 13.6583C7.63155 13.7113 7.63155 13.7642 7.62121 13.8172C7.61086 13.8384 7.62121 13.849 7.62121 13.8702C7.65225 13.9868 7.63156 14.1033 7.59017 14.2093C7.60051 14.2623 7.62121 14.3152 7.59017 14.3682C7.57982 14.3788 7.59017 14.3894 7.57982 14.4C7.59017 14.453 7.60051 14.506 7.60051 14.5589C7.57982 14.6331 7.57982 14.6967 7.54878 14.7603C7.53843 14.8026 7.53843 14.845 7.54878 14.8874C7.56947 14.9404 7.57982 14.9934 7.59017 15.0464C7.60051 15.0887 7.60051 15.1311 7.56947 15.1629C7.55913 15.1735 7.54878 15.1947 7.53843 15.2053C7.56947 15.2795 7.59017 15.3536 7.65225 15.4066C7.66259 15.4172 7.67294 15.4384 7.67294 15.4596C7.68329 15.4808 7.67294 15.5126 7.65225 15.5232C7.6419 15.5338 7.63155 15.5338 7.62121 15.5444C7.67294 15.5974 7.67294 15.5973 7.67294 15.6609C7.67294 15.6821 7.67294 15.6927 7.68329 15.7139C7.73502 15.7669 7.76606 15.8305 7.77641 15.9046C7.77641 15.9152 7.77641 15.9258 7.77641 15.9364C7.77641 15.9576 7.77641 15.9894 7.78676 16.0106C7.82814 16.0848 7.83849 16.1801 7.84884 16.2649C7.84884 16.2755 7.84884 16.2861 7.84884 16.2967C7.80745 16.3391 7.80745 16.3497 7.7971 16.3921C7.8178 16.4027 7.82814 16.4238 7.84884 16.4344C7.85918 16.4768 7.86953 16.5298 7.90057 16.5616C7.93161 16.5934 7.9523 16.6464 7.98334 16.6781C7.973 16.7311 7.973 16.7841 7.93161 16.8159C7.92126 16.8265 7.91092 16.8477 7.91092 16.8689C7.91092 16.9007 7.90057 16.9325 7.90057 16.9536C7.973 17.0278 8.04542 17.102 8.06612 17.2079C8.05577 17.2503 8.04543 17.2927 8.07647 17.3245C8.09716 17.3563 8.11785 17.3775 8.13855 17.3987C8.14889 17.4517 8.15924 17.494 8.16959 17.5364C8.19028 17.653 8.22132 17.7589 8.27305 17.8649C8.29375 17.9179 8.30409 17.9709 8.32479 18.0238C8.33513 18.045 8.31444 18.0662 8.2834 18.0662C8.21097 18.0662 8.21097 18.0662 8.24201 18.1404C8.25236 18.1616 8.25236 18.1722 8.26271 18.1934C8.32479 18.2358 8.38687 18.2781 8.4386 18.3311C8.4593 18.3629 8.49033 18.3841 8.50068 18.4159C8.54207 18.5219 8.60415 18.6278 8.60415 18.7444C8.67658 18.8185 8.72831 18.9033 8.75935 18.9987C8.7697 19.0411 8.80074 19.094 8.83178 19.1258C8.87317 19.1682 8.90421 19.2212 8.94559 19.2742C9.00767 19.3695 9.06975 19.4755 9.14218 19.5603C9.19392 19.6132 9.2353 19.6874 9.27669 19.751C9.28703 19.7616 9.28704 19.7828 9.29738 19.804C9.28704 19.8146 9.26634 19.8252 9.256 19.8358C9.24565 19.8464 9.2353 19.857 9.24565 19.8675C9.24565 19.8781 9.256 19.8887 9.26634 19.8993C9.32842 19.9205 9.3905 19.9417 9.42154 19.9523C9.49397 20.0159 9.5457 20.0583 9.58709 20.1113C9.62848 20.1642 9.64917 20.2384 9.68021 20.302C9.7216 20.3232 9.75264 20.3444 9.79403 20.3656C9.84576 20.3868 9.86645 20.4503 9.88715 20.4927C9.96992 20.5563 10.0527 20.6093 10.1458 20.6728C10.1769 20.7152 10.2182 20.7576 10.2389 20.8212C10.3941 20.8636 10.3941 20.8636 10.4873 20.9801C10.6528 21.0543 10.6942 21.0861 10.839 21.2238C10.8287 21.245 10.8184 21.2662 10.839 21.2874C10.8494 21.298 10.8804 21.2874 10.9011 21.2662C10.9218 21.2344 10.9529 21.2132 10.9529 21.1709C10.9529 21.1285 10.9632 21.0861 10.9736 21.0437C10.9943 20.9377 11.0253 20.8424 11.0563 20.747C11.077 20.6623 11.0977 20.5669 11.1184 20.4821C11.1598 20.3126 11.2115 20.143 11.2529 19.9629C11.2943 19.804 11.3253 19.645 11.3771 19.4861C11.3978 19.4119 11.4288 19.3377 11.4392 19.253C11.4599 19.147 11.4909 19.0411 11.553 18.9457C11.5426 18.8397 11.5633 18.7444 11.584 18.649C11.6047 18.543 11.6564 18.4583 11.6668 18.3523C11.6668 18.3205 11.6978 18.2887 11.7082 18.257C11.7185 18.2358 11.7185 18.2252 11.7185 18.204C11.7185 18.1722 11.7185 18.1298 11.7289 18.098C11.7496 17.9921 11.7703 17.8967 11.8116 17.8013C11.853 17.6848 11.8737 17.5682 11.9151 17.4517C11.9151 17.4411 11.9255 17.4305 11.9255 17.4199C11.9358 17.2609 12.0082 17.1232 12.0393 16.9748C12.0496 16.943 12.06 16.9219 12.0807 16.9007C12.122 16.8477 12.1531 16.8053 12.122 16.7311C12.122 16.7205 12.122 16.7099 12.122 16.6993C12.1531 16.604 12.1531 16.498 12.2048 16.4026C12.2152 16.3073 12.2772 16.2225 12.2772 16.1166C12.2772 16.0954 12.2876 16.0848 12.2876 16.0636C12.3393 15.894 12.3911 15.7245 12.4945 15.5762C12.5049 15.555 12.5152 15.5338 12.5049 15.5126C12.4842 15.4702 12.4842 15.4384 12.5049 15.396C12.5359 15.3113 12.567 15.2371 12.5773 15.1523C12.598 15.0675 12.6187 14.9828 12.6601 14.9086C12.6808 14.8662 12.6911 14.8344 12.7015 14.7815C12.7015 14.7603 12.7015 14.7285 12.7222 14.7073C12.7635 14.6331 12.7842 14.5483 12.7946 14.4636C12.8049 14.4212 12.8256 14.3788 12.8463 14.347C12.8877 14.2728 12.9187 14.1881 12.9187 14.1033C12.9187 14.0715 12.9291 14.0397 12.9394 14.0185C12.9705 13.9656 12.9705 13.902 13.0015 13.849C13.0222 13.8172 13.0015 13.7748 13.0222 13.743C13.0636 13.6901 13.0636 13.6265 13.0843 13.5735C13.105 13.5205 13.1153 13.457 13.1257 13.3934C13.1464 13.2662 13.1774 13.1603 13.2395 13.0437C13.2705 12.9801 13.2912 12.9166 13.343 12.8742C13.3637 12.853 13.374 12.8212 13.3844 12.7894C13.4154 12.6834 13.4568 12.5775 13.4878 12.4715C13.5292 12.4291 13.4878 12.3762 13.4878 12.3338C13.4982 12.3232 13.4982 12.302 13.5085 12.2914C13.5292 12.2702 13.5396 12.2384 13.5292 12.2066C13.5189 12.1642 13.5396 12.1325 13.5602 12.1007C13.5809 12.0795 13.6016 12.0583 13.6016 12.0265C13.6016 11.9841 13.612 11.9417 13.6327 11.9099C13.6637 11.857 13.6844 11.804 13.7154 11.7404C13.6948 11.7086 13.6844 11.6662 13.6637 11.6344C13.6534 11.6238 13.6327 11.6132 13.6223 11.6132C13.612 11.6344 13.6016 11.645 13.5809 11.6556C13.5602 11.6662 13.5396 11.6768 13.5189 11.6874C13.4878 11.698 13.4568 11.6874 13.4361 11.698C13.4154 11.7086 13.405 11.7298 13.374 11.7192C13.3533 11.7192 13.343 11.7192 13.3223 11.7192C13.1981 11.7298 13.1981 11.7298 13.1153 11.698C13.105 11.698 13.0946 11.6874 13.0843 11.6874C13.0015 11.751 12.9912 11.7722 12.8256 11.7828C12.8049 11.7828 12.7946 11.7934 12.7842 11.804C12.7635 11.8358 12.7429 11.804 12.7325 11.7934C12.7222 11.804 12.7015 11.8146 12.6911 11.8252C12.6601 11.8252 12.6497 11.804 12.629 11.7934C12.598 11.7828 12.567 11.7722 12.5256 11.7934C12.4324 11.8464 12.329 11.8464 12.2359 11.8675C12.2359 11.8675 12.2255 11.8675 12.2152 11.8675C12.1427 11.8464 12.0703 11.857 12.0082 11.857C11.9772 11.8675 11.9565 11.8781 11.9358 11.8887C11.9151 11.8993 11.8944 11.9099 11.8841 11.9311C11.8737 11.9417 11.8634 11.9417 11.853 11.9417C11.822 11.9523 11.791 11.9629 11.7703 11.9523C11.7082 11.9311 11.6564 11.9629 11.6047 11.9841C11.5633 11.9735 11.5219 11.9417 11.4702 11.9417C11.4495 11.9629 11.4392 11.9841 11.4185 12.0053C11.3874 11.9947 11.3667 11.9841 11.3357 11.9735C11.3047 11.9629 11.284 11.9205 11.2219 11.9311C11.1908 11.9629 11.1391 11.9523 11.0874 11.9523C11.077 11.9735 11.0563 11.9947 11.046 12.0053C11.0356 12.0053 11.0253 12.0053 11.0253 12.0053C10.9839 11.9947 10.9425 11.9841 10.9115 11.9629C10.9011 11.9735 10.8908 11.9841 10.8804 11.9841C10.8701 11.9947 10.8597 11.9947 10.8494 12.0053C10.7873 12.0053 10.7873 12.0053 10.7045 11.9523C10.6735 11.9629 10.6425 11.9735 10.6011 11.9841C10.5597 11.9735 10.508 11.9735 10.4666 11.9629C10.4355 11.9523 10.4148 11.9311 10.3838 11.9205C10.3631 11.9311 10.3528 11.9417 10.3321 11.9523C10.27 11.9523 10.2286 11.9205 10.2079 11.857C10.1975 11.8252 10.1872 11.7934 10.1665 11.751C10.1562 11.7298 10.1562 11.7086 10.1458 11.698C10.0941 11.6344 10.0734 11.5603 10.0527 11.4861C10.0217 11.4013 10.0217 11.3166 10.032 11.2318C10.0527 11.0834 10.0734 10.9457 10.1458 10.8079C10.1562 10.7974 10.1562 10.7762 10.1665 10.755C10.1251 10.6702 10.1148 10.5854 10.1355 10.4795C10.1458 10.4795 10.1665 10.4795 10.1872 10.4795C10.2079 10.4795 10.2182 10.4689 10.2389 10.4689C10.2596 10.4689 10.2907 10.4583 10.3114 10.4583C10.3321 10.4583 10.3424 10.4477 10.3631 10.4477C10.3838 10.4477 10.3941 10.4371 10.4148 10.4371C10.4355 10.5113 10.4666 10.5325 10.4976 10.543ZM20.7409 16.1801C20.7305 16.0848 20.7305 16 20.7512 15.9046C20.7719 15.8093 20.7616 15.7139 20.7409 15.6079C20.7099 15.4702 20.6478 15.343 20.565 15.2265C20.4926 15.1311 20.4305 15.0358 20.3477 14.9616C20.327 14.9404 20.3167 14.9298 20.296 14.9086C20.2442 14.845 20.1822 14.7815 20.1097 14.7391C20.0787 14.7179 20.0373 14.6861 20.0063 14.6649C19.9649 14.6225 19.9235 14.6013 19.8718 14.5801C19.82 14.5589 19.758 14.5483 19.7166 14.4954C19.7062 14.4848 19.6855 14.4848 19.6648 14.4848C19.6131 14.4848 19.5821 14.453 19.5407 14.4212C19.5096 14.4212 19.4786 14.4106 19.4579 14.4106C19.4165 14.3894 19.3855 14.3682 19.3441 14.347C19.2923 14.3788 19.2406 14.3682 19.1889 14.347C19.1682 14.3364 19.1578 14.3258 19.1371 14.3258C19.0854 14.294 19.0233 14.3152 18.9716 14.2834C18.9613 14.2728 18.9509 14.2834 18.9406 14.2834C18.8888 14.3046 18.8371 14.294 18.7854 14.294C18.7233 14.2834 18.6715 14.3046 18.5991 14.294C18.537 14.2305 18.475 14.2199 18.3922 14.2728C18.3922 14.2728 18.3818 14.2834 18.3715 14.2834C18.3094 14.2623 18.2887 14.3152 18.2577 14.3364C18.2163 14.347 18.1749 14.347 18.1439 14.347C18.1232 14.347 18.0921 14.347 18.0714 14.347C18.0404 14.3364 18.0197 14.3258 17.9887 14.347C17.9576 14.3576 17.9266 14.3364 17.9059 14.3682C17.8748 14.4 17.8438 14.3894 17.8024 14.3788C17.8024 14.3788 17.7921 14.3788 17.7817 14.3788C17.761 14.4212 17.7196 14.4 17.6886 14.4C17.6162 14.4424 17.5851 14.5166 17.5437 14.5801C17.5334 14.6437 17.5334 14.7073 17.5231 14.7603C17.5127 14.8132 17.5024 14.8662 17.4817 14.9192C17.4506 14.9934 17.4299 15.057 17.4299 15.1311C17.4299 15.1523 17.4299 15.1735 17.4196 15.1841C17.3679 15.2795 17.3575 15.3854 17.3368 15.4808C17.3161 15.5126 17.2954 15.5338 17.2851 15.555C17.2851 15.5656 17.2851 15.5868 17.2851 15.5974C17.2954 15.6503 17.2954 15.7033 17.254 15.7457C17.223 15.7775 17.223 15.8093 17.223 15.8411C17.223 15.8728 17.2127 15.9152 17.2127 15.947C17.2127 16.0106 17.1816 16.0636 17.1609 16.1272C17.1506 16.1589 17.1195 16.1907 17.0988 16.2119C17.0988 16.2331 17.1092 16.2437 17.1092 16.2649C17.1092 16.2861 17.0885 16.498 17.0781 16.5192C17.0678 16.5404 17.0574 16.5616 17.0368 16.5828C16.9954 16.6146 16.954 16.6358 16.9229 16.6675C16.8919 16.6887 16.8712 16.7205 16.8816 16.7735C16.9022 16.8053 16.9333 16.8371 16.954 16.8689C16.954 16.9219 16.8712 16.943 16.8919 17.0172C16.9022 17.0384 16.9126 17.0702 16.9229 17.0914C16.9126 17.1338 16.9126 17.1656 16.9022 17.1973C16.8816 17.2185 16.8609 17.2397 16.8402 17.2609C16.8712 17.4305 16.8609 17.4623 16.747 17.5788C16.7677 17.6848 16.7677 17.6848 16.7367 17.7695C16.7264 17.8013 16.716 17.8225 16.7057 17.8649C16.6539 17.8967 16.5918 17.9285 16.5608 17.9815C16.5608 18.0344 16.6229 18.045 16.6125 18.098C16.6022 18.1086 16.5815 18.1192 16.5712 18.1298C16.5298 18.1616 16.5194 18.1934 16.5298 18.2358C16.5401 18.257 16.5505 18.2781 16.5401 18.3099C16.5194 18.3205 16.4884 18.3417 16.4677 18.3523C16.447 18.3735 16.4263 18.3947 16.4056 18.4159C16.4056 18.4689 16.4573 18.4901 16.4677 18.5324C16.4573 18.5854 16.447 18.6384 16.4366 18.6914C16.416 18.7126 16.3953 18.7232 16.3642 18.7444C16.3435 18.7656 16.3332 18.7974 16.3435 18.8291C16.3435 18.8397 16.3539 18.8503 16.3539 18.8609C16.3642 18.9033 16.3642 18.9351 16.3332 18.9563C16.3125 18.9669 16.3021 18.9881 16.2814 18.9987C16.2814 19.0411 16.3021 19.0728 16.2814 19.1152C16.2607 19.2318 16.2918 19.2424 16.3435 19.2848C16.3849 19.3166 16.4263 19.3166 16.478 19.2954C16.4884 19.2848 16.5091 19.2742 16.5298 19.2742C16.5815 19.2742 16.6229 19.253 16.6746 19.253C16.7367 19.2424 16.7988 19.253 16.8505 19.2424C16.8712 19.2424 16.8816 19.2424 16.9022 19.2424C16.954 19.253 16.9954 19.2424 17.0471 19.2318C17.1195 19.2106 17.2023 19.2 17.2747 19.2318C17.3161 19.253 17.3575 19.2318 17.3885 19.2C17.3989 19.1894 17.4196 19.1788 17.4299 19.1682C17.4713 19.1682 17.5024 19.1894 17.5334 19.1576C17.5644 19.1364 17.5955 19.1258 17.6369 19.1258C17.73 19.1046 17.8128 19.0728 17.8955 19.0517C17.9887 19.0411 18.0611 18.9881 18.1439 18.9563C18.1646 18.9457 18.1749 18.9351 18.1956 18.9457C18.2473 18.9563 18.2784 18.9245 18.3094 18.9033C18.3922 18.8397 18.475 18.8185 18.5681 18.7974C18.5888 18.7868 18.6198 18.7974 18.6302 18.7762C18.6612 18.7338 18.7233 18.7444 18.7543 18.7126C18.7647 18.702 18.7647 18.6914 18.775 18.6808C18.7957 18.6384 18.8164 18.6278 18.8578 18.6278C18.8681 18.6278 18.8785 18.6278 18.8888 18.6278C18.9095 18.6278 18.9406 18.6172 18.9509 18.596C18.9716 18.5642 18.9819 18.5325 19.0026 18.5007C19.0751 18.4053 19.1992 18.3629 19.2923 18.3099C19.313 18.2675 19.3234 18.2358 19.3751 18.2358C19.4062 18.2358 19.4062 18.204 19.4165 18.1828C19.4165 18.1722 19.4372 18.1722 19.4476 18.1722C19.4476 18.1722 19.4579 18.1722 19.4682 18.1722C19.52 18.1934 19.5303 18.1934 19.5407 18.1404C19.551 18.1086 19.5717 18.0874 19.5924 18.0662C19.5924 18.045 19.5924 18.0132 19.6028 17.9921C19.6338 17.9497 19.6648 17.9179 19.7062 17.8967C19.758 17.8755 19.7786 17.8225 19.8097 17.7695C19.8511 17.7483 19.9028 17.7166 19.9442 17.6954C19.9545 17.6742 19.9649 17.6636 19.9649 17.6424C19.9752 17.5894 19.9959 17.547 20.027 17.5152C20.0477 17.4834 20.0787 17.4728 20.1201 17.4834C20.1511 17.494 20.1718 17.4728 20.1718 17.4517C20.1615 17.3669 20.2029 17.2927 20.2339 17.2291C20.2649 17.2079 20.2856 17.1868 20.3167 17.1762C20.3477 17.0702 20.3788 16.9642 20.4615 16.8795C20.4926 16.8901 20.5133 16.8901 20.5547 16.9007C20.5753 16.8583 20.6374 16.8583 20.6581 16.8053C20.6581 16.7841 20.6581 16.7629 20.6581 16.7417C20.6478 16.7099 20.6374 16.6675 20.6478 16.6358C20.6581 16.5828 20.6581 16.5298 20.6581 16.4662C20.6581 16.4026 20.6788 16.3497 20.7099 16.2967C20.7099 16.2225 20.7305 16.2013 20.7409 16.1801Z" fill="#0D0E10"/>
</svg>
